<?xml version="1.0" standalone="no"?>
<!DOCTYPE svg PUBLIC "-//W3C//DTD SVG 20010904//EN"
 "http://www.w3.org/TR/2001/REC-SVG-20010904/DTD/svg10.dtd">
<svg version="1.0" xmlns="http://www.w3.org/2000/svg"
 width="360.000000pt" height="360.000000pt" viewBox="0 0 360.000000 360.000000"
 preserveAspectRatio="xMidYMid meet">
<metadata>
Created by potrace 1.15, written by Peter Selinger 2001-2017
</metadata>
<g transform="translate(0.000000,360.000000) scale(0.100000,-0.100000)"
fill="#000000" stroke="none">
<path d="M69 2353 c-60 -37 -59 -26 -59 -558 0 -534 -1 -522 60 -559 26 -15
173 -16 1742 -16 1598 0 1715 1 1738 17 51 35 49 16 49 558 0 542 2 523 -49
558 -23 16 -140 17 -1740 17 -1568 -1 -1717 -2 -1741 -17z m571 -383 c0 -49 3
-90 6 -90 3 0 17 9 31 20 36 28 111 27 148 -2 35 -27 55 -75 55 -133 0 -98
-57 -165 -139 -165 -33 0 -56 6 -74 20 -25 20 -25 20 -30 -1 -4 -15 -12 -20
-29 -17 l-23 3 -3 228 -2 227 30 0 30 0 0 -90z m700 -141 l0 -230 -27 3 -28 3
-3 228 -2 227 30 0 30 0 0 -231z m-195 69 c33 -29 44 -79 45 -200 l0 -98 -25
0 c-14 0 -28 7 -31 15 -5 13 -9 13 -34 0 -78 -40 -160 -3 -160 72 1 63 46 102
130 113 37 4 46 9 48 27 2 15 -5 27 -23 39 -22 14 -33 15 -73 6 -45 -10 -61
-5 -62 19 0 14 49 28 102 28 45 1 62 -4 83 -21z m454 13 c8 -5 11 -16 7 -28
-6 -18 -10 -19 -46 -9 -35 9 -43 8 -61 -10 -28 -29 -15 -51 47 -79 58 -26 74
-47 74 -98 0 -51 -45 -87 -108 -87 -66 0 -92 9 -92 31 0 26 12 30 55 18 94
-26 122 67 28 95 -47 15 -73 45 -73 87 0 60 33 89 102 89 29 0 59 -4 67 -9z
m286 -7 c35 -23 45 -65 45 -190 l0 -114 -25 0 c-19 0 -25 5 -25 21 l0 20 -26
-20 c-38 -30 -104 -28 -141 3 -22 19 -28 32 -28 66 0 35 6 47 32 70 18 16 49
32 70 35 73 12 83 15 83 30 0 8 -10 25 -21 36 -17 17 -29 20 -58 15 -20 -3
-45 -7 -56 -8 -29 -4 -32 30 -3 41 38 16 126 13 153 -5z m192 -4 c5 -20 5 -20
30 0 38 29 103 27 133 -5 l23 -24 29 24 c21 18 42 25 69 25 89 0 109 -39 109
-205 l0 -116 -27 3 -28 3 -5 116 c-5 127 -14 149 -59 149 -57 0 -66 -17 -71
-147 l-5 -118 -27 -3 -28 -3 0 108 c0 135 -10 158 -65 158 -58 0 -75 -38 -75
-168 l0 -98 -27 3 -28 3 -3 158 -3 157 27 0 c17 0 28 -6 31 -20z m551 -137
l-3 -158 -27 -3 -28 -3 0 160 0 161 30 0 31 0 -3 -157z m289 142 c19 -13 22
-13 27 0 3 8 17 15 31 15 l25 0 0 -220 0 -220 -30 0 -30 0 0 81 0 80 -26 -20
c-37 -29 -112 -29 -149 1 -79 62 -72 228 13 281 34 21 111 22 139 2z"/>
<path d="M714 1872 c-12 -2 -32 -14 -45 -28 -19 -21 -24 -36 -24 -84 0 -74 28
-110 85 -110 51 0 81 34 88 98 7 82 -37 135 -104 124z"/>
<path d="M2823 1865 c-16 -7 -34 -24 -41 -39 -26 -57 -6 -154 33 -170 9 -3 32
-6 50 -6 50 0 75 37 75 110 0 90 -48 134 -117 105z"/>
</g>
</svg>
