<?xml version="1.0" standalone="no"?>
<!DOCTYPE svg PUBLIC "-//W3C//DTD SVG 20010904//EN"
 "http://www.w3.org/TR/2001/REC-SVG-20010904/DTD/svg10.dtd">
<svg version="1.0" xmlns="http://www.w3.org/2000/svg"
 width="1500.000000pt" height="136.000000pt" viewBox="0 0 1500.000000 136.000000"
 preserveAspectRatio="xMidYMid meet">
<metadata>
Created by potrace 1.15, written by Peter Selinger 2001-2017
</metadata>
<g transform="translate(0.000000,136.000000) scale(0.100000,-0.100000)"
fill="#000000" stroke="none">
<path d="M380 1343 c0 -10 -10 -75 -22 -145 l-21 -127 -96 -3 -96 -3 -21 -105
c-11 -58 -23 -120 -27 -137 l-6 -33 100 0 c100 0 101 0 96 -22 -3 -13 -11 -60
-18 -105 l-12 -83 -87 0 -87 0 -27 -133 c-14 -72 -26 -135 -26 -139 0 -5 40
-8 88 -8 l89 0 -24 -132 c-12 -73 -23 -136 -23 -140 0 -5 67 -8 148 -8 l149 0
21 123 c12 68 22 131 22 140 0 15 11 17 78 17 l79 0 -24 -133 c-12 -72 -23
-135 -23 -139 0 -5 67 -8 148 -8 l148 0 24 140 23 140 103 0 c99 0 104 1 108
22 17 79 46 233 46 244 0 11 -23 14 -106 14 -105 0 -106 0 -101 22 3 13 12 60
19 105 l12 82 95 3 95 3 23 110 c12 61 22 122 23 138 l0 27 -94 0 -93 0 19
103 c10 56 21 121 25 145 l6 42 -150 0 -150 0 -24 -145 -23 -145 -73 0 c-52 0
-73 4 -73 13 0 6 9 64 20 127 11 63 20 123 20 133 0 15 -14 17 -150 17 -136 0
-150 -2 -150 -17z m359 -560 c0 -5 -8 -51 -18 -103 l-17 -95 -76 -3 -75 -3 14
83 c23 141 13 128 98 128 41 0 75 -3 74 -7z"/>
<path d="M9910 1337 c-229 -68 -413 -259 -465 -481 -8 -34 -15 -111 -15 -176
0 -206 50 -330 190 -471 149 -151 298 -205 530 -196 69 3 152 13 185 22 91 25
195 80 259 136 l56 51 0 239 0 239 -155 0 -155 0 0 -180 c0 -175 -1 -180 -22
-191 -80 -43 -252 -52 -343 -18 -114 42 -205 160 -227 292 -40 247 112 456
344 474 118 9 204 -17 302 -91 25 -20 50 -36 54 -36 9 1 152 212 152 225 0 17
-101 86 -177 121 -103 49 -179 64 -318 63 -94 0 -136 -5 -195 -22z"/>
<path d="M14295 1341 c-205 -59 -303 -194 -293 -400 10 -214 107 -298 451
-392 176 -48 217 -77 217 -155 0 -35 -6 -47 -35 -72 -88 -78 -267 -42 -438 88
-37 28 -72 50 -77 48 -4 -2 -47 -50 -94 -108 -98 -120 -99 -108 9 -185 78 -56
163 -97 255 -127 64 -19 96 -23 215 -23 167 0 238 19 335 91 110 81 156 185
148 336 -7 108 -38 178 -106 239 -68 60 -142 94 -319 145 -180 52 -211 67
-235 113 -20 40 -10 83 27 121 22 22 36 25 105 28 98 5 185 -19 282 -78 37
-22 69 -40 72 -40 6 0 144 194 151 212 11 29 -172 125 -300 158 -102 26 -282
27 -370 1z"/>
<path d="M1530 680 l0 -662 358 4 c379 5 415 9 515 59 61 31 132 110 157 176
26 71 28 183 4 255 -23 69 -102 149 -171 174 l-51 18 45 29 c85 56 123 133
123 248 0 128 -66 241 -172 295 -101 51 -141 56 -485 61 l-323 5 0 -662z m617
364 c41 -31 59 -92 41 -146 -20 -65 -60 -80 -220 -86 l-128 -5 0 133 0 132
139 -4 c123 -3 143 -6 168 -24z m27 -495 c21 -6 49 -21 61 -34 52 -51 40 -162
-22 -198 -36 -20 -162 -37 -290 -37 l-83 0 0 146 0 147 148 -7 c81 -4 164 -12
186 -17z"/>
<path d="M2822 903 c5 -476 6 -487 66 -611 38 -79 140 -179 224 -220 245 -120
572 -58 721 137 53 69 83 137 101 223 13 63 16 153 16 493 l0 415 -149 0 -149
0 -4 -407 c-5 -452 -7 -471 -71 -555 -46 -61 -104 -88 -189 -88 -38 0 -83 6
-101 14 -47 19 -96 73 -126 136 l-26 55 -3 423 -3 422 -155 0 -155 0 3 -437z"/>
<path d="M4270 680 l0 -660 155 0 155 0 -2 658 -3 657 -152 3 -153 3 0 -661z"/>
<path d="M4910 680 l0 -660 430 0 430 0 0 140 0 140 -275 0 -275 0 -2 518 -3
517 -152 3 -153 3 0 -661z"/>
<path d="M5777 1333 c-4 -3 -7 -64 -7 -135 l0 -128 185 0 185 0 0 -525 0 -525
155 0 155 0 0 525 0 525 185 0 186 0 -3 133 -3 132 -516 3 c-283 1 -519 -1
-522 -5z"/>
<path d="M7048 1334 c-5 -4 -8 -302 -8 -662 l0 -654 363 5 c383 4 409 7 511
57 58 27 121 97 154 168 36 78 37 201 3 279 -28 62 -93 125 -162 158 l-50 23
33 20 c86 53 130 136 131 246 1 134 -61 247 -163 298 -109 55 -149 60 -490 65
-173 3 -318 2 -322 -3z m604 -283 c52 -26 73 -112 42 -172 -24 -47 -71 -61
-216 -67 l-128 -5 0 133 0 132 138 -4 c86 -3 147 -9 164 -17z m30 -502 c21 -5
50 -20 65 -33 25 -22 28 -31 28 -91 0 -60 -3 -69 -28 -90 -40 -35 -85 -44
-249 -52 l-148 -6 0 148 0 148 148 -7 c81 -4 164 -11 184 -17z"/>
<path d="M8140 1329 c0 -5 101 -187 225 -403 l225 -393 0 -257 0 -256 150 0
150 0 0 255 0 256 221 385 c122 212 223 394 226 405 5 19 1 19 -158 17 l-164
-3 -135 -232 c-74 -128 -137 -233 -140 -233 -3 1 -52 83 -109 183 -58 100
-120 206 -138 235 l-33 52 -160 0 c-105 0 -160 -4 -160 -11z"/>
<path d="M10925 1328 c-3 -7 -4 -303 -3 -658 l3 -645 153 -3 152 -3 0 661 0
660 -150 0 c-111 0 -152 -3 -155 -12z"/>
<path d="M11565 1329 c-3 -8 -4 -304 -3 -659 l3 -645 153 -3 152 -3 0 211 0
210 93 0 93 0 144 -210 145 -209 188 -1 c103 0 187 3 187 6 0 3 -70 104 -155
223 -85 120 -157 224 -160 232 -3 9 9 20 33 31 56 26 121 95 153 163 52 112
58 291 13 416 -40 111 -151 193 -304 225 -107 22 -727 33 -735 13z m680 -284
c52 -26 75 -72 75 -150 -1 -89 -27 -140 -87 -167 -39 -17 -74 -22 -205 -26
l-158 -5 0 188 0 187 168 -4 c142 -3 173 -6 207 -23z"/>
<path d="M12950 680 l0 -660 430 0 430 0 0 140 0 140 -280 0 -280 0 0 520 0
520 -150 0 -150 0 0 -660z"/>
</g>
</svg>
