<?xml version="1.0" standalone="no"?>
<!DOCTYPE svg PUBLIC "-//W3C//DTD SVG 20010904//EN"
 "http://www.w3.org/TR/2001/REC-SVG-20010904/DTD/svg10.dtd">
<svg version="1.0" xmlns="http://www.w3.org/2000/svg"
 width="674.000000pt" height="674.000000pt" viewBox="0 0 674.000000 674.000000"
 preserveAspectRatio="xMidYMid meet">
<metadata>
Created by potrace 1.15, written by Peter Selinger 2001-2017
</metadata>
<g transform="translate(0.000000,674.000000) scale(0.100000,-0.100000)"
fill="#000000" stroke="none">
<path d="M1674 5349 c-3 -6 -6 -88 -5 -182 2 -142 5 -175 18 -189 15 -17 83
-18 1248 -18 1181 0 1233 1 1248 18 14 16 17 44 17 188 0 119 -4 174 -12 182
-17 17 -2503 18 -2514 1z"/>
<path d="M4467 5353 c-4 -3 -7 -89 -7 -189 0 -171 1 -184 19 -194 12 -6 131
-10 315 -10 283 0 297 1 316 20 18 18 20 33 20 181 0 91 -4 169 -10 180 -10
18 -25 19 -329 19 -175 0 -321 -3 -324 -7z"/>
<path d="M1680 4741 c-6 -11 -10 -90 -10 -185 0 -136 3 -167 16 -180 13 -14
56 -16 315 -16 188 0 308 4 320 10 18 10 19 23 19 188 0 125 -4 182 -12 190
-9 9 -95 12 -325 12 -299 0 -313 -1 -323 -19z"/>
<path d="M2610 4741 c-6 -11 -10 -90 -10 -185 0 -136 3 -167 16 -180 13 -14
56 -16 319 -16 263 0 306 2 319 16 13 13 16 44 16 188 0 120 -4 176 -12 184
-9 9 -95 12 -325 12 -299 0 -313 -1 -323 -19z"/>
</g>
</svg>
