<?xml version="1.0" standalone="no"?>
<!DOCTYPE svg PUBLIC "-//W3C//DTD SVG 20010904//EN"
 "http://www.w3.org/TR/2001/REC-SVG-20010904/DTD/svg10.dtd">
<svg version="1.0" xmlns="http://www.w3.org/2000/svg"
 width="779.000000pt" height="202.000000pt" viewBox="0 0 779.000000 202.000000"
 preserveAspectRatio="xMidYMid meet">
<metadata>
Created by potrace 1.15, written by Peter Selinger 2001-2017
</metadata>
<g transform="translate(0.000000,202.000000) scale(0.100000,-0.100000)"
fill="#000000" stroke="none">
<path d="M310 2006 c-29 -11 -35 -18 -34 -42 4 -83 189 -649 288 -880 l53
-123 -51 -50 c-29 -28 -56 -51 -61 -51 -29 1 -240 560 -329 875 -21 72 -40
136 -42 144 -8 24 -52 -28 -92 -108 l-37 -75 -3 -385 -3 -385 93 -94 c147
-149 202 -175 285 -135 20 9 93 71 164 138 154 148 193 170 299 170 107 0 148
-23 300 -170 128 -124 175 -155 230 -155 49 0 84 24 218 151 150 142 213 179
304 179 32 0 74 -7 94 -15 l35 -14 -3 357 -3 358 -37 75 c-21 41 -57 93 -82
118 l-45 44 -16 -59 c-87 -312 -168 -554 -261 -783 -56 -138 -153 -331 -182
-364 -24 -27 -52 -18 -141 49 -2 2 13 29 32 61 77 129 165 334 257 598 57 165
172 566 165 574 -4 3 -311 7 -683 8 -534 1 -684 -1 -712 -11z"/>
<path d="M3281 1553 c-19 -17 -21 -29 -23 -165 l-3 -147 -45 29 c-176 114
-434 57 -552 -122 -56 -85 -71 -143 -66 -261 3 -88 8 -110 34 -162 36 -73 114
-154 180 -188 129 -65 292 -58 417 20 l37 23 0 -22 c0 -29 9 -42 37 -57 34
-17 62 -13 88 14 l25 24 0 489 c0 480 0 490 -21 516 -25 31 -76 35 -108 9z
m-180 -404 c50 -25 123 -109 137 -157 32 -105 1 -217 -79 -285 -121 -104 -293
-76 -375 61 -18 29 -35 73 -39 97 -30 205 180 373 356 284z"/>
<path d="M5157 1320 l-27 -21 0 -384 0 -384 26 -20 c34 -27 64 -27 98 0 l26
20 0 263 c0 252 1 263 23 306 55 109 186 109 244 1 22 -43 23 -51 23 -307 l0
-263 26 -20 c15 -12 37 -21 49 -21 12 0 34 9 49 21 l26 20 0 263 c0 252 1 263
23 306 51 101 173 110 239 18 22 -32 23 -40 28 -311 5 -278 5 -279 29 -298 30
-25 62 -24 95 2 l26 20 0 283 c0 323 -4 345 -76 425 -57 63 -127 94 -214 95
-78 0 -127 -15 -184 -59 l-44 -33 -22 23 c-59 63 -216 90 -304 52 -35 -15 -41
-16 -56 -2 -29 27 -72 29 -103 5z"/>
<path d="M3807 1319 c-109 -26 -213 -113 -269 -226 -28 -58 -33 -78 -36 -164
-3 -73 0 -110 13 -151 36 -112 120 -207 225 -257 49 -23 67 -26 170 -26 110 0
118 2 182 33 89 43 178 138 178 188 0 45 -29 74 -76 74 -31 0 -43 -7 -83 -51
-134 -149 -346 -126 -427 46 l-24 50 315 5 c368 6 351 1 348 104 -8 251 -261
435 -516 375z m174 -155 c41 -12 66 -28 105 -68 28 -29 56 -67 62 -84 l11 -32
-245 0 c-194 0 -244 3 -244 13 0 24 57 104 94 132 36 27 103 53 142 54 11 1
45 -6 75 -15z"/>
<path d="M4550 1309 c-114 -51 -170 -166 -140 -287 16 -68 58 -122 122 -157
48 -26 64 -29 173 -33 131 -5 155 -14 175 -62 16 -38 6 -75 -27 -106 -25 -23
-30 -24 -198 -24 -159 0 -174 -2 -199 -21 -30 -24 -35 -72 -10 -107 15 -21 20
-22 212 -22 220 0 248 7 309 70 51 52 68 96 68 175 0 79 -19 127 -69 177 -53
53 -98 68 -214 68 -126 0 -166 14 -188 65 -18 45 -10 78 28 110 29 25 33 25
204 25 161 0 176 2 194 20 13 13 20 33 20 59 0 67 -14 71 -230 71 -164 0 -190
-3 -230 -21z"/>
<path d="M6540 1312 c-214 -71 -332 -295 -274 -517 30 -117 113 -216 224 -269
61 -29 72 -31 180 -31 107 0 119 2 175 29 81 40 158 119 198 203 30 64 32 75
32 178 0 142 -22 199 -107 291 -86 92 -159 126 -281 131 -70 2 -105 -1 -147
-15z m228 -159 c50 -24 110 -86 134 -139 26 -60 26 -158 0 -217 -42 -96 -135
-157 -237 -157 -76 0 -128 24 -181 82 -57 61 -78 122 -72 201 6 73 26 117 77
170 79 84 182 106 279 60z"/>
<path d="M7319 1316 c-98 -35 -159 -124 -159 -233 0 -74 15 -115 60 -167 57
-64 98 -78 243 -85 125 -6 129 -7 153 -34 32 -37 32 -87 0 -124 l-24 -28 -186
-5 c-202 -5 -210 -8 -222 -65 -4 -22 0 -38 16 -58 l21 -27 195 0 c220 0 254 9
315 78 44 50 59 92 59 167 0 75 -15 117 -59 167 -52 60 -90 72 -235 78 l-128
6 -29 32 c-32 36 -36 69 -15 111 24 45 52 51 232 51 162 0 165 0 189 25 30 30
32 64 4 99 l-20 26 -187 0 c-126 -1 -199 -5 -223 -14z"/>
<path d="M770 839 c-19 -12 -87 -72 -150 -133 -128 -125 -181 -161 -262 -177
-97 -20 -181 16 -303 128 l-56 52 3 -197 c3 -193 4 -198 32 -255 41 -84 131
-176 212 -218 l68 -34 696 0 696 0 68 34 c81 42 171 134 212 218 l29 58 3 247
3 246 -44 26 c-52 31 -109 34 -152 8 -16 -10 -83 -71 -148 -135 -144 -141
-215 -183 -312 -181 -96 1 -156 37 -311 187 -73 70 -145 132 -159 137 -42 16
-87 12 -125 -11z m-30 -87 c0 -17 107 -127 149 -154 56 -35 129 -38 179 -8
l34 21 44 -33 c97 -72 93 -59 33 -100 -163 -111 -315 -83 -479 88 l-82 86 53
54 c51 52 69 64 69 46z"/>
</g>
</svg>
