<?xml version="1.0" standalone="no"?>
<!DOCTYPE svg PUBLIC "-//W3C//DTD SVG 20010904//EN"
 "http://www.w3.org/TR/2001/REC-SVG-20010904/DTD/svg10.dtd">
<svg version="1.0" xmlns="http://www.w3.org/2000/svg"
 width="2049.000000pt" height="810.000000pt" viewBox="0 0 2049.000000 810.000000"
 preserveAspectRatio="xMidYMid meet">
<metadata>
Created by potrace 1.15, written by Peter Selinger 2001-2017
</metadata>
<g transform="translate(0.000000,810.000000) scale(0.100000,-0.100000)"
fill="#000000" stroke="none">
<path d="M1015 7794 c-587 -183 -988 -313 -999 -324 -18 -18 -13 -44 204
-1092 122 -590 227 -1078 233 -1084 7 -6 138 -109 292 -229 154 -120 283 -221
287 -224 4 -4 -87 -51 -202 -106 -116 -54 -218 -107 -226 -116 -15 -16 -2 -86
151 -826 92 -444 170 -813 174 -818 3 -6 96 -96 206 -200 110 -104 199 -191
197 -194 -1 -3 -62 -42 -134 -87 -72 -44 -136 -87 -141 -95 -7 -11 28 -200
117 -630 69 -338 132 -626 139 -641 16 -35 1034 -1116 1058 -1123 10 -3 28 -1
39 5 23 12 1291 1019 1328 1055 l24 22 -16 358 c-9 197 -14 360 -12 363 3 2
102 -78 220 -178 189 -158 220 -181 246 -178 23 2 169 113 565 428 302 240
537 434 540 445 4 16 35 481 35 524 0 6 67 -37 150 -95 177 -124 194 -132 221
-116 19 12 853 674 876 696 8 7 44 238 92 596 67 495 78 588 67 605 -8 11
-264 159 -571 328 -426 237 -563 308 -583 305 -29 -4 -949 -561 -969 -586 -10
-12 -13 -71 -13 -218 0 -110 -3 -222 -6 -246 l-6 -46 -188 124 c-103 68 -196
124 -207 124 -10 0 -140 -74 -288 -165 -253 -155 -270 -163 -276 -142 -3 12
-9 117 -13 232 -3 116 -9 234 -12 263 l-6 52 -284 192 c-157 105 -281 195
-277 199 5 4 118 65 253 135 135 69 254 135 264 145 19 17 18 35 -27 1085 -25
586 -49 1070 -54 1074 -14 14 -1463 710 -1476 709 -6 0 -453 -137 -992 -305z
m2415 -1431 c22 -499 40 -943 42 -987 l3 -78 -834 -434 c-459 -239 -836 -432
-839 -429 -7 7 -313 2085 -309 2103 2 12 1887 745 1895 737 2 -2 21 -412 42
-912z m111 -2575 c16 -354 28 -681 28 -728 l0 -85 -707 -476 c-389 -262 -708
-475 -710 -474 -5 4 -222 1499 -219 1508 3 11 1570 905 1576 900 2 -1 17 -292
32 -645z m3029 120 c-33 -249 -63 -465 -66 -480 -4 -21 -87 -92 -377 -325
-331 -264 -372 -294 -374 -272 -1 13 17 242 40 509 l42 484 395 283 c247 176
396 277 398 268 2 -7 -24 -217 -58 -467z m-1330 -978 c-16 -267 -31 -502 -32
-523 -3 -37 -12 -45 -478 -417 l-475 -379 -6 112 c-4 62 -7 303 -7 537 l-1
425 512 366 c281 201 513 365 514 364 1 0 -11 -219 -27 -485z m-1610 -1210
c11 -261 20 -501 20 -533 l0 -57 -492 -393 c-679 -541 -729 -580 -733 -576 -2
2 -40 252 -84 554 l-81 550 27 20 c15 11 317 228 672 482 473 338 647 458 648
445 2 -9 12 -231 23 -492z"/>
<path d="M8725 5740 c-38 -10 -150 -37 -247 -60 l-178 -43 0 -1406 c0 -1528
-2 -1473 56 -1601 30 -66 94 -133 152 -157 134 -56 347 -26 466 64 45 35 116
123 116 144 0 5 -15 15 -34 23 -84 35 -155 131 -193 261 -16 56 -18 155 -21
1428 l-3 1367 -22 -1 c-12 0 -53 -9 -92 -19z"/>
<path d="M17755 5740 c-38 -10 -150 -37 -247 -60 l-178 -43 0 -454 c0 -430 -1
-455 -17 -448 -195 79 -380 107 -576 86 -207 -23 -372 -87 -532 -209 -314
-238 -471 -617 -452 -1092 15 -366 113 -619 320 -817 161 -155 339 -230 596
-253 234 -20 501 40 629 141 l27 21 3 -61 3 -61 269 0 270 0 0 1635 0 1635
-22 -1 c-13 0 -54 -9 -93 -19z m-604 -1409 c32 -12 84 -39 118 -61 l61 -40 0
-593 0 -594 -22 -21 c-31 -28 -131 -76 -202 -97 -83 -24 -272 -16 -371 15
-205 64 -332 199 -391 415 -22 79 -30 344 -15 445 42 270 189 460 411 529 92
28 101 30 235 27 96 -2 131 -7 176 -25z"/>
<path d="M9819 5656 c-161 -57 -246 -214 -205 -376 61 -239 351 -320 525 -147
65 64 84 108 89 210 4 83 3 91 -27 152 -55 111 -160 175 -284 175 -34 -1 -78
-7 -98 -14z"/>
<path d="M11782 4819 c-165 -19 -310 -78 -424 -173 -37 -31 -69 -56 -71 -56
-2 0 -23 43 -47 95 l-43 95 -198 0 -199 0 0 -1145 0 -1145 270 0 270 0 0 822
0 821 26 34 c38 51 156 129 248 164 235 91 500 17 589 -165 63 -129 61 -99 65
-923 l3 -753 275 0 275 0 -4 783 c-5 847 -5 850 -62 1016 -131 384 -499 585
-973 530z"/>
<path d="M14180 4819 c-484 -56 -834 -400 -927 -913 -24 -128 -23 -416 1 -551
32 -178 88 -328 169 -453 156 -240 360 -376 652 -434 119 -23 356 -28 480 -8
388 60 685 311 811 687 42 124 64 256 70 423 21 495 -142 882 -458 1088 -209
136 -502 195 -798 161z m299 -454 c184 -44 304 -179 362 -405 27 -108 38 -396
19 -522 -57 -395 -314 -605 -651 -534 -210 45 -329 189 -391 471 -8 38 -13
132 -13 260 0 175 3 211 23 290 58 231 195 389 380 440 65 18 194 18 271 0z"/>
<path d="M19243 4819 c-246 -29 -472 -140 -658 -325 -220 -219 -320 -468 -332
-826 -9 -275 23 -457 112 -646 57 -120 114 -200 206 -287 216 -204 454 -287
829 -287 263 0 453 33 633 108 60 25 197 108 197 119 0 5 -200 407 -206 414
-2 2 -20 -10 -41 -26 -111 -88 -228 -134 -387 -154 -422 -52 -726 144 -774
499 l-9 62 818 0 817 0 11 50 c40 184 40 389 1 539 -112 431 -454 713 -921
761 -114 11 -191 11 -296 -1z m367 -479 c127 -42 218 -122 272 -236 33 -71 58
-154 58 -196 l0 -28 -550 0 c-517 0 -550 1 -550 18 1 34 66 188 104 244 73
110 180 184 310 214 89 20 272 12 356 -16z"/>
<path d="M9350 4560 l0 -220 145 0 145 0 0 -925 0 -925 275 0 275 0 0 1145 0
1145 -420 0 -420 0 0 -220z"/>
</g>
</svg>
