<?xml version="1.0" standalone="no"?>
<!DOCTYPE svg PUBLIC "-//W3C//DTD SVG 20010904//EN"
 "http://www.w3.org/TR/2001/REC-SVG-20010904/DTD/svg10.dtd">
<svg version="1.0" xmlns="http://www.w3.org/2000/svg"
 width="879.000000pt" height="426.000000pt" viewBox="0 0 879.000000 426.000000"
 preserveAspectRatio="xMidYMid meet">
<metadata>
Created by potrace 1.15, written by Peter Selinger 2001-2017
</metadata>
<g transform="translate(0.000000,426.000000) scale(0.100000,-0.100000)"
fill="#000000" stroke="none">
<path d="M1518 4102 c-20 -23 -36 -66 -57 -149 l-17 -68 -530 -5 c-443 -4
-534 -7 -559 -20 -34 -17 -61 -46 -71 -75 -4 -11 -10 -22 -15 -25 -5 -3 -13
-56 -18 -117 -11 -122 -1 -225 24 -250 18 -17 22 -36 29 -128 11 -131 30 -275
37 -275 11 0 21 -191 21 -401 -1 -139 4 -213 14 -251 19 -72 18 -286 -1 -380
-19 -89 -31 -249 -20 -275 7 -16 9 -15 15 7 8 23 8 23 9 -7 1 -23 -4 -33 -14
-33 -8 0 -15 -7 -15 -15 0 -8 -4 -15 -8 -15 -28 0 -46 -281 -23 -343 6 -16 11
-45 11 -65 0 -38 -50 -253 -61 -262 -3 -3 -12 -42 -19 -87 -8 -46 -17 -83 -22
-83 -4 0 -8 -7 -8 -15 0 -8 -4 -15 -10 -15 -5 0 -10 -20 -10 -45 0 -25 4 -45
8 -45 9 0 38 -117 48 -192 4 -27 10 -48 14 -48 3 0 14 -16 23 -35 27 -57 65
-67 267 -73 96 -2 177 -7 180 -11 17 -24 102 -34 328 -40 170 -4 245 -10 250
-18 14 -22 139 -36 246 -28 128 10 157 10 346 -2 150 -10 188 -17 201 -35 3
-5 59 -13 125 -18 127 -10 234 -29 234 -42 0 -4 164 -8 365 -8 237 0 365 4
365 10 0 6 11 10 24 10 14 0 37 5 53 12 17 7 117 14 251 18 146 4 226 10 230
17 28 45 353 44 384 -2 10 -14 296 -14 306 1 27 43 257 43 284 0 5 -8 242 -12
875 -16 664 -4 875 -8 896 -17 16 -7 39 -13 53 -13 13 0 24 -4 24 -10 0 -5 23
-10 50 -10 28 0 50 5 50 10 0 6 10 10 23 10 12 0 44 7 71 15 68 21 344 21 412
0 27 -8 59 -15 72 -15 12 0 22 -4 22 -10 0 -7 162 -10 465 -10 256 0 465 4
465 9 0 4 20 11 45 14 51 7 80 24 131 75 45 45 74 86 74 105 0 9 5 17 11 19 5
2 14 56 19 123 9 124 29 256 41 265 3 3 10 41 13 85 4 44 12 100 18 125 5 25
12 108 14 185 4 109 1 154 -12 206 -16 61 -16 73 0 180 23 162 23 404 1 493
-14 56 -16 88 -10 170 4 56 8 139 9 186 1 84 22 200 37 200 14 0 23 57 25 165
1 61 6 184 11 275 9 160 10 166 36 192 15 15 27 34 27 42 0 8 7 22 16 31 21
21 23 193 2 206 -10 6 -13 41 -13 141 0 117 -2 136 -20 160 -47 62 -49 63
-405 66 -188 2 -327 7 -331 13 -3 5 -37 16 -75 24 -58 12 -238 15 -1152 15
-1083 0 -1163 2 -1184 34 -9 14 -197 14 -206 0 -17 -24 -95 -34 -272 -34 -175
0 -255 10 -272 34 -3 5 -75 12 -160 16 -144 6 -212 20 -230 45 -4 5 -48 9 -98
9 -50 0 -94 -4 -98 -9 -22 -31 -82 -39 -335 -44 -162 -4 -260 -10 -265 -16
-21 -32 -90 -35 -789 -35 l-700 0 -95 45 c-128 60 -247 88 -358 83 -47 -3 -92
-8 -101 -12 -13 -6 -15 1 -11 52 5 63 -6 82 -30 54z m226 -147 c5 -13 10 -14
27 -4 12 6 19 7 15 1 -6 -10 21 -27 37 -23 5 1 37 -19 72 -43 56 -41 63 -43
68 -26 3 11 -1 21 -11 25 -8 3 -12 8 -9 11 8 8 228 -107 323 -169 78 -51 80
-53 67 -77 -29 -56 -19 -68 162 -205 11 -8 1 -6 -25 6 -25 11 -62 27 -82 36
-21 9 -36 19 -34 22 2 3 -11 7 -29 8 -27 1 -34 -2 -37 -22 -4 -19 1 -26 24
-36 25 -10 27 -14 13 -21 -25 -15 -41 -4 -66 49 -12 26 -31 54 -40 61 -10 6
-23 29 -29 50 -7 20 -15 40 -19 44 -3 4 -44 -11 -91 -34 -102 -48 -210 -90
-210 -82 0 4 5 24 12 46 10 33 9 41 -3 50 -12 8 -11 9 2 5 12 -4 20 10 34 64
16 64 16 71 1 88 -22 24 -20 34 7 25 14 -4 6 6 -23 30 -25 20 -50 36 -56 36
-6 0 -18 8 -25 17 -12 15 -12 16 6 10 20 -7 20 -7 1 8 -11 8 -29 12 -40 9 -14
-3 -36 4 -58 20 -20 13 -47 26 -60 29 -13 2 -2 5 23 6 34 1 49 -3 53 -14z
m2211 -105 c10 9 15 9 15 1 0 -6 7 -11 15 -11 8 0 15 -5 15 -11 0 -6 7 -3 16
5 10 11 24 14 42 9 15 -3 45 -6 67 -5 22 1 95 2 163 2 88 1 121 4 116 12 -5 8
3 9 27 3 19 -4 41 -8 49 -9 8 -1 25 -8 38 -15 12 -6 39 -11 60 -10 20 2 46 -2
57 -8 11 -6 35 -10 52 -9 20 1 34 -3 38 -12 2 -7 10 -10 15 -7 6 4 27 -1 46
-10 33 -15 52 -16 169 -2 11 1 23 6 26 11 9 11 31 -3 24 -15 -4 -5 3 -9 14 -9
11 0 29 -10 41 -22 l20 -22 1 30 c2 28 2 28 8 -5 6 -35 31 -56 31 -26 0 9 -4
14 -9 11 -5 -4 -7 3 -4 14 3 11 11 20 19 20 7 0 11 -6 8 -14 -3 -8 0 -17 6
-21 6 -4 11 -1 9 6 -3 28 1 39 17 39 10 0 13 -6 10 -18 -5 -14 -1 -18 16 -18
13 1 26 9 30 19 6 14 19 18 63 17 3 0 21 6 39 14 48 20 75 22 116 8 19 -6 58
-11 85 -11 45 1 100 -5 100 -10 0 -14 182 -21 201 -9 6 4 25 3 43 -2 24 -6 33
-6 37 4 3 8 16 11 34 8 17 -2 36 0 43 5 6 6 41 11 77 12 35 2 67 4 70 6 3 2
32 -3 64 -10 32 -8 90 -12 129 -11 40 2 81 -1 92 -7 23 -12 83 -11 99 1 6 5
20 8 31 6 46 -8 371 -8 384 0 28 18 231 5 231 -15 0 -4 24 -5 53 -2 28 3 68 5
87 4 36 -1 205 0 347 3 46 0 84 -3 86 -8 2 -5 17 -9 35 -8 17 0 34 -4 38 -9 3
-5 31 -10 62 -10 31 0 68 0 81 0 13 -1 27 4 31 11 5 8 25 10 61 6 30 -3 83 -8
119 -11 36 -3 71 -7 78 -10 7 -3 45 0 85 6 88 14 127 14 136 2 3 -6 23 -16 45
-23 23 -7 34 -15 27 -19 -6 -4 -9 -15 -5 -24 4 -13 1 -17 -15 -17 -28 0 -41
-35 -41 -111 0 -38 7 -73 19 -97 34 -68 34 -88 2 -124 -50 -58 -74 -180 -64
-333 5 -84 3 -106 -11 -133 -17 -32 -24 -121 -12 -140 3 -6 -1 -22 -9 -38 -7
-15 -11 -32 -8 -37 3 -5 -5 -16 -17 -24 -14 -10 -20 -22 -16 -35 2 -12 -2 -27
-10 -35 -8 -8 -14 -25 -14 -39 0 -13 -4 -24 -9 -24 -6 0 -6 -12 -1 -30 5 -16
6 -30 3 -30 -3 0 2 -9 11 -19 18 -20 15 -72 -5 -97 -6 -7 -4 -16 6 -24 11 -9
12 -17 3 -34 -6 -11 -17 -25 -25 -29 -7 -5 -11 -12 -8 -18 4 -5 2 -9 -2 -9
-12 0 -11 -44 1 -52 5 -3 21 -66 36 -140 21 -105 24 -140 16 -166 -8 -28 -6
-40 14 -78 l24 -44 -19 -32 c-14 -25 -21 -64 -28 -158 -11 -162 -11 -147 3
-210 20 -85 10 -196 -16 -186 -8 3 -14 1 -14 -4 0 -6 7 -10 16 -10 12 0 15 -6
9 -22 -4 -13 -7 -31 -8 -40 -1 -12 -5 -14 -13 -7 -8 7 -13 2 -17 -17 -4 -23
-2 -25 22 -19 17 4 21 3 12 -3 -9 -7 -10 -12 -2 -16 17 -11 13 -29 -4 -22 -9
3 -15 0 -15 -9 0 -8 -4 -15 -10 -15 -5 0 -10 -4 -10 -10 0 -5 6 -7 14 -4 7 3
16 -2 19 -10 4 -9 2 -16 -4 -16 -6 0 -6 -7 1 -20 12 -23 6 -40 -16 -40 -8 0
-13 -3 -12 -7 0 -5 -1 -15 -5 -23 -13 -35 -28 -242 -17 -255 15 -21 18 -55 4
-55 -8 0 -11 -6 -8 -15 4 -8 1 -15 -5 -15 -7 0 -9 -11 -6 -31 4 -20 2 -28 -5
-24 -5 3 -13 -2 -17 -12 -4 -10 -25 -36 -47 -57 -34 -33 -49 -40 -86 -42 -53
-3 -167 -12 -231 -19 -25 -3 -49 -2 -53 2 -4 4 -46 8 -94 9 -162 4 -309 12
-338 18 -76 16 -174 19 -644 21 -370 2 -520 6 -560 15 -80 19 -176 25 -245 16
-87 -12 -217 -21 -221 -15 -4 8 -306 1 -407 -9 -42 -4 -80 -5 -85 -1 -10 10
-180 22 -193 14 -16 -10 -238 -8 -252 2 -41 30 -152 41 -287 29 -30 -3 -93 -7
-139 -11 -47 -3 -87 -7 -89 -10 -3 -3 -11 0 -18 6 -7 5 -15 6 -18 1 -3 -5 -25
-5 -53 0 -26 5 -84 13 -128 19 -44 5 -90 14 -103 19 -14 6 -39 6 -70 0 -55
-12 -101 -17 -159 -19 -32 -1 -43 -5 -48 -21 -5 -16 -15 -20 -49 -20 -23 0
-46 3 -50 7 -4 5 -42 9 -85 10 -42 0 -98 4 -123 8 -33 5 -54 2 -76 -9 -17 -9
-40 -16 -52 -16 -11 0 -20 -4 -20 -9 0 -9 -126 -34 -170 -33 -92 1 -270 11
-279 16 -14 9 -142 -12 -158 -26 -10 -8 -24 -8 -51 0 -20 6 -65 11 -99 10 -35
0 -69 4 -76 10 -7 7 -63 14 -123 16 -111 5 -120 6 -189 37 -22 9 -67 20 -100
24 -33 4 -69 12 -80 18 -30 15 -329 32 -321 18 3 -5 -14 -6 -37 -4 -23 2 -64
3 -92 2 -57 -2 -46 -2 -183 7 -73 5 -115 3 -141 -6 -29 -9 -43 -10 -60 -1 -48
26 -198 57 -321 66 -30 2 -86 7 -125 10 -38 4 -100 8 -138 9 -37 2 -70 6 -73
9 -3 3 -17 2 -30 -3 -13 -5 -26 -5 -29 -1 -3 5 -6 47 -6 93 -1 45 -6 96 -10
111 -5 19 -2 48 11 90 11 37 20 97 21 147 2 88 14 129 55 189 32 47 30 79 -8
151 -30 58 -30 61 -16 97 8 21 13 56 11 78 -1 22 6 65 17 96 27 80 35 140 34
251 l-2 97 29 6 c26 6 51 25 32 25 -4 0 -8 60 -8 133 0 72 -4 141 -9 152 -4
11 -8 67 -8 125 -1 64 -5 108 -12 112 -6 4 -4 10 8 14 17 6 16 8 -5 20 -13 7
-18 13 -11 14 18 0 15 21 -5 36 -17 13 -17 14 4 20 14 4 20 12 18 25 -2 10 0
21 6 24 13 9 11 45 -3 45 -6 0 -8 3 -5 7 4 3 -1 12 -11 19 -16 12 -16 13 1 19
28 11 20 22 -28 35 -25 7 -45 19 -45 26 0 16 16 19 25 4 3 -5 11 -10 16 -10 6
0 7 5 4 10 -3 6 1 10 9 10 13 0 14 4 4 26 -7 15 -8 28 -2 32 26 19 0 90 -39
108 l-32 15 38 -4 c28 -2 36 0 33 10 -3 7 0 13 7 14 9 0 9 2 0 6 -7 2 -13 13
-13 24 0 10 -5 19 -12 19 -9 0 -9 3 0 12 18 18 15 67 -4 75 -13 5 -13 7 -2 14
11 8 11 11 -1 18 -8 5 -10 14 -6 21 5 8 4 11 -1 7 -6 -3 -16 -2 -24 4 -11 6
-11 9 -2 9 10 0 10 5 1 22 -8 15 -9 23 -1 26 6 2 7 13 3 30 -6 19 -4 31 6 41
10 9 11 17 4 25 -7 8 -4 16 10 24 17 11 18 16 9 28 -7 8 -9 14 -4 14 5 0 4 4
-3 8 -6 4 -13 16 -15 27 -1 11 -9 25 -16 30 -7 6 -14 21 -17 35 -3 14 -7 36
-10 50 -22 110 -25 161 -9 185 20 30 54 40 91 28 21 -7 38 -6 65 7 49 22 156
20 172 -2 8 -10 25 -16 49 -14 20 1 38 -3 40 -8 4 -11 172 -7 172 4 0 7 92 14
165 12 59 -2 152 8 165 17 17 12 73 13 79 2 5 -7 15 -7 33 0 14 5 28 7 31 4 3
-3 -17 -110 -45 -238 -28 -127 -64 -292 -79 -364 l-27 -133 -71 0 c-39 0 -91
-7 -116 -16 -29 -10 -59 -13 -87 -9 -33 5 -42 3 -38 -7 3 -9 -20 -22 -72 -42
-47 -17 -92 -43 -116 -65 -33 -31 -41 -48 -58 -116 -10 -44 -19 -115 -19 -157
0 -86 7 -76 -74 -93 -31 -6 -66 -66 -66 -110 0 -28 6 -37 28 -49 41 -21 56 -7
32 29 -39 59 -19 93 56 98 l37 2 19 -70 c10 -38 23 -126 28 -195 6 -69 13
-152 16 -186 l6 -60 -51 -61 c-150 -181 -164 -263 -54 -325 29 -16 53 -33 53
-37 0 -4 -20 -58 -45 -120 -28 -70 -43 -120 -40 -132 7 -22 54 -44 66 -32 4 4
28 58 54 118 61 144 70 152 60 50 -11 -103 -6 -356 6 -371 5 -6 27 -14 48 -18
33 -5 42 -13 72 -62 38 -64 115 -117 213 -148 55 -17 59 -17 114 0 49 17 57
23 60 47 4 34 -24 121 -43 137 -17 14 -11 30 11 30 8 0 14 -8 14 -19 0 -25 66
-84 131 -117 86 -43 208 -45 250 -3 30 30 25 82 -12 123 l-31 36 0 264 c0 145
3 269 6 275 5 8 16 0 30 -21 15 -23 41 -41 83 -58 l61 -25 6 -83 c4 -46 4
-119 0 -161 -7 -89 4 -108 57 -97 27 5 32 2 44 -28 19 -45 53 -70 130 -96 35
-12 75 -30 89 -41 33 -26 114 -26 166 1 35 18 40 25 40 56 l0 35 33 -25 c114
-87 307 -78 307 15 0 41 -14 71 -51 107 l-34 33 2 102 c1 56 7 145 14 197 l12
95 39 19 c22 10 51 36 65 57 23 34 25 45 20 101 l-6 63 119 110 c194 178 269
279 278 376 l5 49 46 0 46 0 -4 325 c-2 179 0 341 3 360 l7 35 75 0 c81 0 122
-14 148 -52 14 -19 16 -69 16 -346 l0 -323 91 3 90 3 -1 358 0 357 80 0 c87 0
127 -14 154 -52 14 -19 16 -69 16 -343 l0 -321 90 0 90 0 0 324 c0 214 -4 338
-11 363 -17 56 -62 104 -127 136 -55 27 -62 28 -213 28 -139 0 -159 -2 -178
-19 -20 -18 -21 -18 -58 0 -30 15 -67 19 -177 22 -159 5 -198 -4 -241 -48
l-30 -31 -3 -355 -3 -354 -32 0 c-18 0 -43 -7 -56 -16 -40 -29 -110 -134 -127
-192 -27 -92 -115 -312 -124 -307 -4 2 -24 42 -44 88 -24 53 -45 86 -59 92
-21 9 -22 16 -22 125 l1 115 45 46 c46 46 76 104 59 114 -4 3 -24 -17 -44 -45
-20 -27 -40 -50 -46 -50 -6 0 -10 29 -11 68 0 37 -8 108 -18 157 -17 86 -17
92 0 141 10 27 25 106 34 175 28 214 56 309 132 440 24 42 45 89 46 104 2 26
-2 30 -43 42 -24 7 -88 17 -140 22 -60 6 -118 18 -155 33 -70 29 -150 77 -141
86 22 21 396 31 679 18 91 -5 107 -3 107 10 0 11 5 12 18 6 18 -9 45 -8 122 2
82 12 115 13 133 4 10 -5 17 -5 17 2 0 17 29 11 51 -11 23 -23 68 -19 90 7 14
17 55 19 62 2 4 -10 8 -10 14 -2 5 8 39 12 92 11 57 0 86 3 89 11 2 7 12 12
23 12 10 0 19 4 19 8 0 4 12 9 28 10 15 1 31 8 37 16 7 11 13 12 22 4 9 -7 17
-7 28 2z m-1797 -263 c6 -6 13 -24 17 -38 6 -24 1 -28 -82 -69 -48 -23 -116
-53 -149 -66 -34 -13 -92 -39 -129 -59 -37 -19 -71 -32 -77 -29 -5 3 -17 -1
-26 -9 -29 -25 -104 -59 -112 -50 -4 4 -13 25 -20 47 -10 32 -10 40 1 47 58
38 130 73 224 109 61 24 144 56 185 73 159 63 153 62 168 44z m89 -149 c17
-35 45 -105 62 -155 32 -98 79 -198 116 -248 37 -50 37 -62 3 -80 -17 -8 -32
-14 -33 -13 -1 2 -8 13 -14 26 -7 13 -21 22 -35 22 -33 0 -100 -52 -126 -98
-19 -34 -37 -47 -129 -90 -58 -28 -137 -63 -176 -78 -38 -14 -85 -36 -103 -47
l-34 -20 7 49 c11 88 13 92 43 96 15 2 39 -5 55 -16 36 -26 76 -13 99 34 10
18 25 38 33 43 40 22 37 103 -5 114 -13 3 -20 14 -20 29 0 47 -67 83 -97 53
-22 -22 -41 1 -68 83 -15 46 -36 100 -46 120 -11 21 -19 39 -19 41 0 6 120 61
124 56 2 -2 26 -53 54 -114 93 -205 168 -364 175 -371 3 -4 9 0 13 9 3 10 -35
100 -95 224 -55 115 -103 222 -107 238 -5 30 -4 31 71 62 l76 31 28 -62 c16
-33 67 -126 115 -205 47 -79 86 -150 86 -158 0 -7 7 -13 15 -13 20 0 19 16 -4
48 -10 15 -46 81 -79 147 -33 66 -76 147 -96 180 -20 32 -35 64 -33 70 5 13
78 55 98 55 9 0 28 -26 46 -62z m-512 -178 c9 -16 29 -66 45 -111 l30 -81 -26
-25 c-18 -16 -24 -31 -21 -45 3 -11 -1 -27 -9 -35 -20 -21 -17 -73 6 -98 20
-22 24 -38 22 -93 -2 -31 -22 -38 -22 -7 0 7 -14 36 -30 62 -17 27 -34 73 -40
103 -5 30 -25 107 -44 170 -20 63 -36 120 -36 127 0 8 92 63 107 63 1 0 9 -13
18 -30z m-197 -181 c26 -6 57 -15 69 -21 27 -13 48 -64 58 -138 4 -34 18 -72
36 -98 42 -65 61 -182 29 -182 -4 0 -10 13 -13 29 -4 16 -27 52 -51 80 -45 51
-46 51 -52 26 -13 -53 3 -96 52 -140 44 -38 47 -43 40 -76 l-6 -35 -53 6 c-52
5 -52 5 -59 45 -3 22 -11 90 -17 150 -9 89 -17 122 -41 172 -35 71 -91 124
-151 142 -47 14 -47 16 7 35 48 18 91 19 152 5z m-123 -92 c42 -24 97 -102
116 -167 13 -45 29 -273 20 -282 -4 -5 -34 -11 -67 -14 l-60 -6 -12 53 c-7 29
-22 64 -34 76 -27 29 -76 30 -106 3 -19 -18 -22 -31 -22 -97 0 -57 4 -81 17
-95 23 -26 75 -23 110 6 29 25 65 32 198 42 65 4 86 2 115 -13 28 -14 35 -24
35 -48 0 -37 -44 -69 -124 -91 -31 -8 -78 -22 -106 -30 -78 -24 -208 -36 -334
-32 -98 3 -123 7 -164 28 -32 16 -44 27 -37 34 14 14 13 46 -2 46 -23 -1 -53
-34 -66 -73 -16 -44 -10 -57 18 -39 15 9 35 7 97 -9 141 -38 411 -19 560 38
20 8 18 -170 -2 -187 -8 -7 -24 -33 -35 -57 -13 -30 -58 -83 -136 -158 l-116
-113 -76 40 c-42 23 -86 49 -97 58 -11 10 -43 29 -72 44 -28 14 -58 34 -65 44
-17 24 -120 82 -145 82 -17 0 -20 12 -31 123 -7 67 -22 170 -34 229 -12 59
-19 111 -14 115 4 4 77 8 162 8 140 0 154 -2 154 -18 0 -18 16 -50 39 -79 17
-21 103 -25 119 -5 20 23 24 65 12 121 -14 68 -30 86 -78 86 -45 0 -77 -21
-86 -55 l-6 -25 -163 6 c-107 3 -164 9 -169 17 -11 18 -10 139 3 196 17 80 44
111 133 154 43 21 81 36 84 32 3 -3 -4 -9 -17 -12 l-23 -6 23 -13 c13 -7 40
-13 60 -14 20 0 56 -7 79 -15 69 -24 192 -16 150 10 -17 11 -11 22 13 21 17
-1 22 4 21 22 0 16 5 22 20 22 12 0 28 5 36 10 24 16 62 11 105 -13z m935 -57
c0 -17 -7 -47 -15 -66 -8 -20 -12 -41 -9 -46 7 -12 74 56 74 75 0 17 40 41 51
30 5 -5 -1 -23 -16 -43 -34 -46 -16 -65 25 -25 16 16 32 26 35 23 4 -3 -8 -16
-24 -28 -41 -28 -40 -44 2 -36 31 6 35 3 56 -35 25 -45 51 -186 51 -281 0 -66
5 -63 -145 -121 -136 -53 -171 -60 -285 -61 -125 -1 -162 10 -224 68 -25 23
-48 40 -51 38 -25 -26 42 -98 109 -116 80 -23 176 -29 256 -17 59 9 248 66
320 95 13 5 14 -16 8 -173 -3 -99 -9 -188 -12 -199 -5 -16 -27 -23 -129 -41
-176 -31 -322 -60 -399 -79 -97 -23 -106 -17 -145 104 -28 88 -33 120 -43 286
-6 103 -15 223 -22 267 -9 64 -8 83 2 96 13 16 94 55 114 55 7 0 50 18 97 41
104 51 159 71 159 59 0 -22 18 -8 30 23 29 80 41 97 77 116 50 27 53 26 53 -9z
m-560 -370 c13 -68 32 -316 32 -429 1 -78 -1 -86 -24 -105 -13 -12 -31 -36
-38 -54 l-13 -33 -26 45 c-14 25 -43 65 -63 89 -44 51 -61 120 -52 201 6 51 6
51 67 81 34 17 70 42 81 57 19 27 19 29 3 63 -9 19 -21 35 -27 35 -14 0 -12
30 6 84 14 40 19 46 30 34 8 -7 18 -38 24 -68z m1185 -256 c-14 -38 -41 -96
-60 -129 -39 -71 -124 -189 -131 -183 -7 8 44 137 88 220 37 71 115 174 125
165 2 -3 -8 -35 -22 -73z m-359 -290 c-8 -134 -8 -162 -5 -270 2 -80 1 -86
-22 -101 -13 -10 -48 -40 -77 -67 -61 -59 -78 -108 -63 -178 11 -49 43 -79
105 -99 l41 -13 -35 -3 c-19 -2 -91 -10 -159 -18 -134 -16 -170 -10 -152 24 6
10 17 23 25 31 20 16 21 69 2 96 -8 11 -17 45 -21 77 -4 31 -11 60 -16 63 -11
6 -23 -41 -14 -55 9 -15 5 -14 -40 9 -64 33 -103 23 -125 -29 -19 -46 -6 -76
67 -153 51 -54 63 -72 52 -79 -8 -5 -68 -6 -135 -2 -87 4 -126 2 -143 -7 -38
-20 -44 -2 -36 104 l7 95 52 30 c29 16 67 41 84 56 86 72 96 201 21 241 -37
19 -119 18 -146 -1 -21 -15 -23 -14 -28 12 -3 15 -14 66 -25 113 -23 97 -24
110 -10 110 6 0 10 -7 10 -15 0 -8 5 -14 11 -13 6 2 20 -19 31 -47 11 -27 24
-55 30 -62 14 -17 84 -16 144 2 27 8 61 15 76 15 27 0 27 0 12 -35 -19 -47
-18 -98 4 -118 10 -9 38 -19 62 -22 87 -12 89 -13 100 -54 18 -67 76 -89 131
-50 52 36 82 102 87 188 4 72 2 78 -26 118 l-31 41 60 7 c32 4 61 11 64 15 3
5 8 45 12 90 9 124 26 83 19 -46z m-952 -3 c29 -24 76 -128 76 -167 0 -46 -26
-101 -57 -121 -27 -18 -27 -19 -39 25 -18 65 -27 30 -29 -111 -1 -79 -5 -148
-9 -155 -4 -7 -26 -12 -49 -12 -23 0 -62 -5 -87 -11 -64 -15 -150 -27 -150
-20 0 3 -66 7 -147 7 -82 1 -190 2 -240 3 l-92 2 -3 141 c-2 102 -6 143 -15
146 -10 3 -13 -15 -13 -67 0 -50 -4 -71 -12 -71 -29 1 -154 77 -167 101 -13
24 -13 32 4 74 10 27 46 85 80 130 34 45 68 92 75 106 7 13 14 25 15 27 6 7
83 -38 124 -72 23 -20 70 -49 104 -65 34 -16 73 -40 87 -53 13 -12 46 -33 73
-45 l48 -22 -23 -40 -22 -39 27 -35 c31 -41 37 -110 12 -143 -19 -26 -19 -50
2 -58 22 -9 143 32 143 48 0 7 -11 41 -25 75 -23 56 -24 66 -13 97 11 32 10
40 -11 76 l-24 41 54 46 c68 56 161 153 201 208 l31 42 27 -37 c15 -20 35 -43
44 -51z m1046 -92 c33 -101 37 -146 15 -175 -9 -12 -14 -14 -15 -6 0 10 -5 10
-22 -2 -12 -9 -25 -16 -28 -16 -3 0 -5 76 -5 170 -1 192 2 193 55 29z m-907
-25 c11 -69 21 -304 13 -304 -15 0 -82 32 -98 47 -23 21 -23 58 0 75 32 23 44
58 47 142 2 44 4 85 4 89 1 5 7 7 14 5 6 -3 15 -27 20 -54z m796 -672 c38 -20
73 -75 69 -107 -2 -13 -16 -24 -41 -32 -72 -24 -229 35 -272 101 -21 31 -13
46 25 46 23 0 36 -10 61 -45 19 -27 40 -45 52 -45 14 0 17 5 12 18 -3 9 9 2
29 -17 30 -30 56 -35 56 -11 0 4 -21 31 -46 59 l-46 51 34 0 c18 0 49 -8 67
-18z m-304 -40 c33 -50 41 -94 21 -111 -28 -24 -101 -26 -138 -4 -18 11 -66
32 -106 47 -62 24 -102 54 -102 77 0 4 21 10 47 14 42 6 50 4 68 -17 28 -34
94 -82 102 -74 3 3 12 1 19 -5 7 -6 18 -8 24 -4 19 12 10 34 -25 61 -41 31
-45 48 -10 42 14 -3 28 -1 31 3 12 21 45 7 69 -29z m-804 -101 c28 -17 29 -20
11 -25 -23 -8 -58 -44 -49 -52 3 -3 26 6 51 21 46 27 50 26 47 -7 -3 -21 10
-23 27 -6 9 9 16 8 30 -5 20 -18 42 -23 42 -9 0 19 -32 72 -41 67 -5 -4 -6 1
-2 10 5 14 10 12 35 -12 28 -29 41 -83 24 -101 -17 -17 -141 -6 -190 16 -59
27 -136 88 -136 108 0 22 111 19 151 -5z m-379 -18 c23 -21 23 -29 -2 -36 -11
-3 -20 -9 -20 -14 0 -13 48 -32 70 -26 14 4 21 -1 25 -20 4 -14 15 -33 26 -43
17 -15 19 -15 25 0 3 9 1 29 -5 44 -9 22 -9 34 3 56 l14 28 16 -25 c16 -24 36
-81 36 -103 0 -19 -58 -37 -101 -31 -61 8 -166 66 -210 116 -22 24 -39 47 -39
52 0 23 137 25 162 2z"/>
<path d="M6605 3283 l-80 -4 0 -419 0 -420 83 0 82 0 0 425 c0 234 -1 424 -2
423 -2 -1 -39 -4 -83 -5z"/>
<path d="M4210 3220 l0 -60 85 0 85 0 0 60 0 60 -85 0 -85 0 0 -60z"/>
<path d="M5083 3083 c4 -108 7 -298 7 -422 l0 -226 82 3 83 3 -3 265 -3 264
121 0 c121 0 122 0 151 -29 l29 -29 0 -236 0 -236 86 0 86 0 -4 248 c-3 240
-4 248 -27 289 -52 90 -136 123 -318 123 l-123 0 0 90 0 90 -87 0 -86 0 6
-197z"/>
<path d="M7767 3242 l-79 -3 7 -312 c4 -172 12 -321 17 -332 38 -75 120 -115
240 -115 l68 0 0 60 0 60 -60 0 c-51 0 -65 4 -85 25 -24 24 -25 28 -25 180 l0
155 83 0 84 0 0 60 0 60 -83 0 -83 0 -3 83 -3 82 -78 -3z"/>
<path d="M5973 3092 c-69 -25 -119 -64 -145 -115 -19 -38 -21 -57 -19 -186 1
-95 6 -154 15 -176 22 -52 83 -112 144 -142 56 -27 62 -28 252 -31 l195 -3 -3
63 -3 63 -157 0 c-144 0 -160 2 -200 23 -46 24 -82 73 -82 110 l0 22 235 0
235 0 0 105 c0 119 -10 154 -61 204 -58 58 -109 75 -239 78 -92 3 -125 0 -167
-15z m254 -132 c31 -19 40 -37 46 -90 l2 -25 -152 -3 -153 -3 0 33 c1 41 20
77 51 94 39 21 168 18 206 -6z"/>
<path d="M4212 2766 l3 -330 83 -1 82 -1 0 331 0 331 -85 0 -85 0 2 -330z"/>
<path d="M4640 3085 c-62 -19 -125 -75 -145 -129 -14 -36 -16 -70 -13 -178 4
-153 16 -187 89 -252 75 -68 172 -96 336 -96 l81 0 0 68 0 67 -106 0 c-91 0
-113 4 -149 23 -62 33 -75 59 -84 170 -9 113 1 162 38 191 23 19 40 21 163 21
l136 0 -2 63 -3 62 -148 2 c-104 1 -161 -2 -193 -12z"/>
<path d="M7212 3076 c-58 -19 -104 -52 -133 -94 -21 -32 -24 -48 -27 -155 -5
-154 7 -197 69 -259 70 -70 138 -88 330 -88 l149 0 0 59 0 60 -137 -2 c-123
-2 -143 1 -185 20 -29 13 -52 33 -62 52 -33 62 -37 61 195 61 l211 0 -4 114
c-3 110 -4 115 -34 152 -50 63 -112 87 -229 91 -67 2 -114 -2 -143 -11z m229
-135 c19 -19 29 -40 29 -59 l0 -30 -84 -3 c-47 -2 -107 -2 -135 -1 -49 4 -51
5 -51 34 0 19 10 40 29 59 27 27 35 29 106 29 71 0 79 -2 106 -29z"/>
<path d="M3280 2281 c-54 -17 -110 -52 -144 -93 -62 -72 -67 -104 -64 -449 l3
-304 93 -3 92 -3 0 196 0 195 190 0 191 0 -1 -192 -2 -193 92 0 91 -1 -3 330
c-3 319 -4 332 -25 372 -31 59 -106 121 -166 139 -54 16 -300 20 -347 6z m316
-165 c19 -19 34 -44 34 -57 0 -13 3 -41 6 -61 l7 -38 -192 0 -191 0 0 58 c1
61 12 84 57 114 23 14 48 18 137 18 l108 0 34 -34z"/>
<path d="M6830 1947 c0 -362 2 -381 53 -435 45 -48 95 -66 202 -70 l100 -4 0
66 0 66 -65 0 c-67 1 -89 10 -107 45 -19 35 -25 125 -18 241 l7 114 91 0 92 0
0 65 0 65 -92 0 -92 0 -3 91 -3 92 -83 1 -82 1 0 -338z"/>
<path d="M7287 2283 c-2 -5 -3 -30 -2 -58 l1 -50 82 -3 82 -3 0 61 0 60 -79 0
c-44 0 -82 -3 -84 -7z"/>
<path d="M7616 2095 c-56 -29 -55 -26 -56 -352 l0 -303 83 0 82 0 -3 270 -3
270 114 0 c63 0 128 -5 146 -11 56 -20 61 -42 61 -299 l0 -230 85 0 85 0 0
236 c0 267 -5 296 -61 353 -64 67 -120 81 -327 81 -139 0 -183 -3 -206 -15z"/>
<path d="M3920 1872 c0 -259 5 -279 87 -352 69 -60 136 -82 279 -88 158 -6
209 2 246 38 l28 28 0 301 0 301 -85 0 -85 0 7 -233 c3 -128 3 -250 -1 -271
l-7 -39 -99 5 c-107 5 -146 20 -184 71 -20 27 -21 40 -21 247 l0 218 -82 -1
-83 0 0 -225z"/>
<path d="M4835 2086 c-93 -29 -145 -75 -166 -145 -7 -23 -10 -89 -7 -172 4
-154 16 -187 90 -256 66 -60 122 -75 267 -71 105 3 121 1 121 -13 0 -9 -9 -24
-21 -35 -19 -17 -41 -19 -203 -22 l-181 -3 2 -62 1 -62 189 0 c209 1 273 13
327 63 54 51 56 65 56 392 0 332 -4 356 -59 384 -39 20 -354 22 -416 2z m305
-123 c3 -3 6 -85 8 -183 l3 -178 -28 -22 c-25 -20 -37 -22 -109 -18 -92 5
-137 25 -166 74 -14 23 -18 57 -20 152 -3 121 -3 122 25 149 23 24 38 29 100
34 70 5 177 1 187 -8z"/>
<path d="M5410 1876 l0 -224 28 -53 c33 -63 88 -109 167 -138 48 -18 78 -21
211 -21 164 0 202 8 224 49 6 12 10 132 10 315 l0 296 -83 0 -84 0 5 -265 5
-265 -104 0 c-120 0 -161 15 -194 71 -18 30 -19 51 -18 246 l1 213 -84 0 -84
0 0 -224z"/>
<path d="M6264 2076 c-30 -14 -64 -40 -80 -62 -25 -32 -29 -46 -29 -100 0
-103 43 -144 202 -189 152 -43 201 -63 209 -87 5 -16 0 -28 -19 -44 -20 -17
-44 -23 -122 -29 -53 -4 -132 -4 -176 0 l-79 7 0 -66 0 -66 188 0 c219 0 261
9 316 70 67 75 67 159 -2 231 -33 34 -52 42 -176 78 -76 22 -149 47 -162 56
-31 20 -30 45 0 75 24 22 32 23 198 24 l173 1 0 62 0 63 -195 0 c-184 0 -198
-1 -246 -24z"/>
<path d="M7288 1770 l3 -330 82 0 82 0 0 330 0 330 -85 0 -85 0 3 -330z"/>
<path d="M3165 1219 c-4 -5 -11 -56 -17 -112 -14 -144 -15 -147 -41 -147 -37
0 -67 -12 -67 -26 0 -19 20 -28 56 -26 l31 2 6 -80 c5 -80 20 -119 56 -148 27
-21 101 -5 139 31 57 55 33 78 -34 32 -74 -50 -104 -22 -104 97 l0 78 49 0
c61 0 95 25 65 47 -10 7 -32 11 -53 7 -63 -9 -66 -1 -53 127 9 89 9 115 -1
121 -16 11 -25 10 -32 -3z"/>
<path d="M4359 1183 c-1 -5 0 -109 1 -233 1 -176 4 -228 15 -239 22 -22 45 4
45 50 0 22 4 39 9 39 5 0 30 -16 55 -35 48 -37 99 -46 109 -21 6 16 -1 22 -55
50 -21 10 -45 27 -54 37 -15 17 -13 22 36 88 53 72 60 104 25 108 -15 2 -32
-14 -64 -62 -24 -36 -47 -65 -51 -65 -7 0 -20 131 -20 216 0 27 -5 55 -12 62
-13 13 -37 16 -39 5z"/>
<path d="M5299 1183 c0 -5 0 -109 1 -233 1 -177 4 -228 15 -239 22 -22 45 4
45 50 0 22 4 39 9 39 5 0 30 -16 56 -36 35 -26 55 -34 78 -32 46 4 40 27 -13
55 -25 13 -54 32 -64 43 -19 18 -18 20 33 89 54 72 61 104 26 108 -15 2 -32
-14 -64 -62 -24 -36 -47 -65 -51 -65 -7 0 -20 131 -20 216 0 27 -5 55 -12 62
-13 13 -38 16 -39 5z"/>
<path d="M7099 1183 c0 -5 0 -109 1 -233 1 -177 4 -228 15 -239 22 -22 45 4
45 50 0 22 4 39 9 39 5 0 30 -16 55 -35 48 -37 99 -46 109 -21 6 16 -1 22 -55
50 -21 10 -45 27 -54 37 -15 17 -13 22 36 88 53 72 60 104 25 108 -15 2 -32
-14 -64 -62 -24 -36 -47 -65 -51 -65 -7 0 -20 131 -20 216 0 27 -5 55 -12 62
-13 13 -38 16 -39 5z"/>
<path d="M6260 1047 c0 -7 -13 -31 -28 -53 -74 -103 -97 -221 -51 -270 22 -24
29 -25 77 -20 74 9 134 40 130 69 -4 31 -31 32 -77 2 -76 -51 -105 -22 -81 83
12 54 32 74 53 53 18 -18 27 -13 43 24 20 49 18 72 -11 100 -26 27 -55 33 -55
12z"/>
<path d="M5807 1013 c-3 -5 -15 -42 -27 -83 -12 -41 -25 -78 -29 -82 -12 -13
-90 75 -104 117 -12 34 -19 40 -46 43 -30 3 -32 2 -26 -20 15 -50 40 -91 83
-141 25 -29 52 -59 59 -68 13 -16 -1 -86 -53 -270 -3 -9 3 -24 11 -33 23 -22
55 -4 55 30 0 34 23 123 66 257 55 173 65 224 47 242 -16 16 -29 19 -36 8z"/>
<path d="M7690 993 c-23 -8 -59 -43 -91 -87 -33 -45 -39 -117 -14 -165 15 -29
76 -61 118 -61 29 0 87 36 87 54 0 19 -28 28 -50 16 -27 -15 -76 -12 -89 4 -7
8 -11 27 -9 42 3 24 12 31 63 51 66 26 85 44 85 83 0 43 -58 79 -100 63z"/>
<path d="M7935 975 c-22 -8 -41 -15 -42 -15 -1 0 -7 -9 -13 -20 -15 -27 8 -65
66 -109 35 -27 42 -36 33 -47 -8 -10 -26 -12 -65 -8 -60 7 -71 -5 -29 -32 36
-23 119 -23 145 1 39 35 20 78 -54 124 -20 13 -36 26 -36 29 1 21 20 32 50 30
27 -2 35 1 38 16 4 19 -21 46 -42 46 -6 -1 -29 -7 -51 -15z"/>
<path d="M3380 952 c0 -31 100 -231 120 -242 15 -8 21 -6 30 9 5 11 10 30 10
43 0 13 4 29 9 37 7 11 13 7 27 -15 40 -64 82 -92 98 -66 7 12 46 192 46 214
0 21 -27 35 -41 21 -5 -5 -14 -38 -20 -74 -6 -35 -12 -70 -15 -78 -8 -24 -32
7 -48 64 -27 90 -64 99 -86 21 -7 -25 -16 -46 -20 -46 -3 0 -17 28 -31 63 -21
53 -28 62 -51 65 -22 3 -28 -1 -28 -16z"/>
<path d="M3848 927 c-55 -42 -70 -74 -62 -127 6 -34 14 -46 47 -67 60 -38 109
-35 154 8 70 67 76 127 20 187 -43 45 -98 45 -159 -1z"/>
<path d="M4728 927 c-55 -42 -70 -74 -62 -127 6 -34 14 -46 47 -67 59 -37 109
-35 152 7 72 70 78 127 22 188 -43 45 -98 45 -159 -1z"/>
<path d="M5038 927 c-55 -42 -70 -74 -62 -127 6 -34 14 -46 47 -67 59 -37 109
-35 152 7 72 70 78 127 22 188 -43 45 -98 45 -159 -1z"/>
<path d="M6528 927 c-55 -42 -70 -74 -62 -127 6 -34 14 -46 47 -67 59 -37 109
-35 152 7 72 70 78 127 22 188 -43 45 -98 45 -159 -1z"/>
<path d="M6838 927 c-55 -42 -70 -74 -62 -127 6 -34 14 -46 47 -67 59 -37 109
-35 152 7 72 70 78 127 22 188 -43 45 -98 45 -159 -1z"/>
<path d="M7434 945 c-4 -9 -4 -60 -1 -112 6 -105 22 -138 51 -113 12 9 16 31
15 94 -2 112 -9 140 -37 144 -13 2 -25 -3 -28 -13z"/>
</g>
</svg>
