<?xml version="1.0" standalone="no"?>
<!DOCTYPE svg PUBLIC "-//W3C//DTD SVG 20010904//EN"
 "http://www.w3.org/TR/2001/REC-SVG-20010904/DTD/svg10.dtd">
<svg version="1.0" xmlns="http://www.w3.org/2000/svg"
 width="1132.000000pt" height="1024.000000pt" viewBox="0 0 1132.000000 1024.000000"
 preserveAspectRatio="xMidYMid meet">
<metadata>
Created by potrace 1.15, written by Peter Selinger 2001-2017
</metadata>
<g transform="translate(0.000000,1024.000000) scale(0.100000,-0.100000)"
fill="#000000" stroke="none">
<path d="M26 6558 c7 -12 106 -127 593 -693 424 -492 702 -815 956 -1110 193
-224 375 -436 648 -752 84 -98 238 -277 342 -398 186 -216 345 -401 648 -752
84 -98 238 -277 342 -398 187 -217 344 -400 646 -750 85 -99 225 -261 310
-360 327 -380 591 -687 749 -870 90 -104 207 -240 259 -302 53 -61 97 -111 98
-109 1 1 -56 117 -128 257 -72 139 -196 382 -276 539 -80 157 -176 344 -213
415 -37 72 -132 256 -210 410 -78 154 -168 330 -200 390 -32 61 -124 241 -205
400 -81 160 -178 349 -215 420 -37 72 -132 256 -210 410 -78 154 -168 330
-200 390 -32 61 -126 245 -210 410 -84 165 -178 350 -210 410 -32 61 -128 250
-215 420 -87 171 -174 342 -195 380 -21 39 -115 223 -210 410 -95 187 -187
367 -205 400 -18 33 -76 147 -129 253 l-97 192 -1135 0 c-906 0 -1134 -3
-1128 -12z"/>
<path d="M8939 6388 c-50 -101 -115 -228 -144 -283 -29 -55 -119 -230 -200
-390 -81 -159 -176 -344 -210 -410 -34 -66 -120 -232 -190 -370 -70 -137 -171
-335 -225 -440 -54 -104 -148 -289 -210 -410 -62 -121 -152 -296 -200 -390
-48 -93 -138 -268 -199 -387 -269 -528 -340 -665 -434 -848 -156 -304 -291
-569 -392 -765 -51 -99 -154 -301 -230 -450 -76 -148 -166 -324 -200 -390 -34
-66 -133 -259 -220 -430 -87 -171 -167 -326 -178 -345 -30 -52 -71 -99 513
580 96 112 236 274 310 360 74 86 227 264 340 395 113 132 266 309 340 395 74
86 214 248 310 360 96 112 249 290 340 395 91 106 244 284 340 395 96 112 236
274 310 360 74 86 227 264 340 395 113 132 266 309 340 395 74 86 214 248 310
360 96 112 249 290 340 395 91 105 244 283 340 395 96 112 236 274 310 360 74
86 227 264 340 395 113 131 265 308 338 392 72 84 132 155 132 158 0 3 -511 5
-1135 5 l-1134 0 -92 -182z"/>
</g>
</svg>
