<?xml version="1.0" standalone="no"?>
<!DOCTYPE svg PUBLIC "-//W3C//DTD SVG 20010904//EN"
 "http://www.w3.org/TR/2001/REC-SVG-20010904/DTD/svg10.dtd">
<svg version="1.0" xmlns="http://www.w3.org/2000/svg"
 width="480.000000pt" height="480.000000pt" viewBox="0 0 480.000000 480.000000"
 preserveAspectRatio="xMidYMid meet">
<metadata>
Created by potrace 1.15, written by Peter Selinger 2001-2017
</metadata>
<g transform="translate(0.000000,480.000000) scale(0.100000,-0.100000)"
fill="#000000" stroke="none">
<path d="M2215 4084 c-143 -23 -333 -101 -446 -185 -162 -120 -294 -315 -336
-498 -18 -79 -24 -355 -13 -591 l5 -105 -57 -3 c-43 -2 -73 3 -121 23 -85 34
-138 33 -203 -4 -75 -43 -101 -108 -70 -170 32 -61 108 -111 231 -151 90 -29
134 -51 168 -85 41 -42 37 -84 -23 -202 -141 -279 -377 -479 -636 -539 -85
-19 -114 -44 -114 -95 0 -93 117 -161 364 -214 59 -13 112 -27 116 -32 4 -4
17 -46 29 -93 33 -132 58 -146 218 -115 96 18 239 19 314 1 67 -15 134 -51
260 -141 113 -80 231 -139 319 -159 84 -20 275 -20 357 -1 95 22 181 66 317
159 144 99 202 130 274 145 76 16 207 14 322 -5 151 -26 170 -12 206 139 14
62 22 78 38 82 12 2 58 12 104 20 138 27 262 74 310 119 85 76 63 164 -46 186
-264 54 -516 267 -663 559 -77 155 -50 201 159 272 103 35 159 67 200 113 65
74 48 155 -42 207 -67 38 -134 39 -223 3 -45 -17 -78 -24 -111 -22 l-47 3 1
40 c1 22 5 132 9 245 12 321 -10 456 -101 617 -99 174 -230 297 -408 383 -158
76 -227 91 -446 95 -102 2 -198 1 -215 -1z m341 -85 c238 -33 450 -152 583
-329 77 -103 128 -208 147 -307 17 -86 20 -369 5 -573 -7 -105 -6 -117 11
-136 46 -51 145 -54 268 -7 73 27 112 25 155 -8 16 -14 25 -29 23 -42 -5 -34
-80 -83 -180 -116 -189 -63 -254 -123 -252 -235 0 -72 34 -151 117 -279 155
-238 367 -404 596 -466 41 -11 77 -23 80 -27 10 -10 -51 -53 -106 -74 -67 -25
-194 -57 -262 -66 -79 -10 -99 -33 -125 -140 l-22 -89 -40 1 c-21 0 -82 6
-134 13 -97 13 -219 9 -295 -10 -61 -16 -145 -62 -263 -143 -216 -148 -277
-171 -462 -171 -104 0 -137 4 -195 23 -92 31 -108 40 -264 145 -181 121 -236
145 -356 159 -75 9 -118 8 -193 -2 -53 -8 -117 -14 -141 -14 l-44 -1 -24 90
c-13 50 -32 98 -42 109 -12 12 -53 24 -120 36 -172 31 -326 92 -326 129 0 8
29 21 75 32 234 59 473 254 624 509 158 267 117 380 -172 475 -86 28 -164 78
-170 109 -5 23 23 53 62 66 27 9 44 6 101 -15 98 -37 179 -43 238 -17 26 12
50 28 54 38 3 9 1 118 -5 243 -13 254 -5 413 28 521 22 75 96 202 161 280 119
141 312 247 510 280 41 6 81 13 89 15 38 7 196 4 266 -6z"/>
</g>
</svg>
