<?xml version="1.0" standalone="no"?>
<!DOCTYPE svg PUBLIC "-//W3C//DTD SVG 20010904//EN"
 "http://www.w3.org/TR/2001/REC-SVG-20010904/DTD/svg10.dtd">
<svg version="1.0" xmlns="http://www.w3.org/2000/svg"
 width="1684.000000pt" height="1191.000000pt" viewBox="0 0 1684.000000 1191.000000"
 preserveAspectRatio="xMidYMid meet">
<metadata>
Created by potrace 1.15, written by Peter Selinger 2001-2017
</metadata>
<g transform="translate(0.000000,1191.000000) scale(0.100000,-0.100000)"
fill="#000000" stroke="none">
<path d="M4689 8613 l-65 -378 -180 -3 -180 -2 -52 -333 c-29 -182 -53 -338
-52 -344 0 -10 43 -13 180 -13 165 0 180 -1 180 -18 0 -9 -59 -370 -130 -802
-72 -432 -132 -796 -133 -810 -1 -19 47 -91 188 -282 l190 -257 552 0 c311 -1
552 3 550 8 -1 5 91 121 204 258 l206 249 37 216 c20 119 36 219 36 223 0 3
-163 4 -362 3 l-363 -3 -9 -68 c-8 -65 -10 -69 -61 -112 l-52 -45 -145 0 -146
0 -36 45 -37 44 16 98 c8 54 59 358 112 676 l98 577 351 0 351 0 52 323 c28
177 54 332 56 345 l5 22 -325 0 c-179 0 -325 3 -325 8 0 10 119 701 125 730
l5 22 -388 0 -388 0 -65 -377z"/>
<path d="M11895 8968 c-7 -30 -595 -3585 -595 -3598 0 -12 740 -14 740 -2 0 4
69 434 153 956 l153 949 120 83 119 83 240 -2 240 -2 50 -96 49 -97 -148 -918
c-81 -506 -150 -929 -153 -941 l-5 -23 353 0 354 0 189 1184 190 1185 -169
223 c-93 123 -178 235 -189 250 l-21 27 -421 0 -420 1 -65 -53 c-35 -29 -92
-74 -127 -101 l-63 -48 5 33 c26 149 146 903 146 915 0 12 -52 14 -360 14
l-360 0 -5 -22z"/>
<path d="M6944 7976 l-301 -254 -152 -917 -151 -917 197 -264 198 -264 740 0
740 0 226 263 225 262 33 200 c18 110 35 210 38 223 l5 22 -380 0 -380 0 -7
-42 c-14 -96 -15 -98 -78 -144 l-61 -44 -327 0 -327 0 -37 46 -38 46 22 141
c12 78 24 157 28 175 l5 32 583 0 582 0 234 196 c129 108 246 208 261 223 26
25 30 45 89 398 l62 372 -199 250 -199 250 -665 0 -665 1 -301 -254z m1232
-391 l36 -45 -28 -148 c-27 -140 -31 -149 -68 -189 l-39 -43 -383 0 c-301 0
-384 3 -384 13 1 6 16 91 34 187 l34 175 53 48 53 47 327 0 328 0 37 -45z"/>
<path d="M9470 8003 c-140 -123 -268 -235 -283 -248 -27 -24 -29 -32 -177
-927 -83 -496 -150 -913 -150 -926 0 -15 68 -112 201 -283 l200 -259 742 0
742 1 225 259 c256 296 224 233 278 543 l29 167 -398 0 c-370 0 -398 -1 -403
-17 -2 -10 -10 -49 -16 -88 l-12 -70 -63 -47 -64 -48 -317 0 -316 0 -39 43
c-21 23 -38 49 -39 57 0 8 45 301 101 651 l102 635 65 47 65 47 323 0 324 0
30 -47 c31 -50 31 -53 15 -185 l-5 -38 398 0 399 0 38 229 38 229 -174 251
-174 251 -715 -1 -715 0 -255 -226z"/>
<path d="M11710 4290 l0 -600 75 0 75 0 2 414 3 415 410 -430 c226 -237 416
-435 423 -441 9 -8 12 110 12 586 l0 596 -75 0 -75 0 -2 -410 -3 -410 -419
440 c-231 242 -421 440 -423 440 -2 0 -3 -270 -3 -600z"/>
<path d="M9059 4287 l-115 -592 74 -3 c41 -2 77 -1 79 2 3 3 34 165 68 361 35
196 65 358 67 360 2 2 77 -165 168 -371 90 -206 167 -374 171 -374 6 0 55 108
254 563 43 97 80 177 84 177 3 0 28 -125 54 -278 27 -152 56 -314 64 -359 l15
-83 157 0 157 0 63 140 63 140 258 0 258 0 63 -140 63 -140 84 0 c46 0 81 3
79 8 -2 4 -125 271 -272 595 -148 323 -272 587 -275 587 -4 0 -93 -190 -200
-422 -106 -233 -227 -497 -269 -587 l-75 -164 -61 314 c-34 173 -86 437 -115
587 -30 149 -57 272 -60 272 -3 0 -91 -196 -195 -435 -104 -239 -192 -435
-195 -435 -3 0 -10 12 -16 28 -33 86 -367 842 -373 842 -3 0 -58 -267 -122
-593z m1774 52 c49 -111 91 -208 94 -215 4 -12 -30 -14 -187 -14 -171 0 -191
2 -186 16 24 63 182 414 186 414 3 0 45 -91 93 -201z"/>
<path d="M8175 4845 c-216 -47 -400 -226 -450 -437 -19 -81 -19 -216 0 -297
47 -199 220 -373 421 -425 79 -20 241 -21 319 -1 105 27 183 72 266 154 123
122 173 242 173 421 0 80 -5 122 -22 175 -91 296 -403 477 -707 410z m205
-135 c232 -37 402 -268 370 -502 -17 -120 -52 -188 -140 -272 -186 -178 -467
-165 -637 28 -158 180 -148 452 23 623 77 77 180 122 304 132 8 0 44 -4 80 -9z"/>
<path d="M13137 4849 c-107 -25 -204 -109 -231 -200 -41 -136 3 -248 127 -326
23 -15 87 -46 142 -70 181 -79 235 -132 235 -229 -1 -64 -27 -120 -78 -166
-46 -41 -90 -54 -160 -44 -86 12 -150 72 -173 164 -13 47 -18 49 -104 28 -49
-11 -50 -12 -47 -46 7 -93 93 -208 193 -262 38 -20 58 -23 154 -23 105 0 114
2 177 33 73 36 124 87 160 161 17 35 23 69 26 144 4 94 3 101 -28 163 -46 94
-118 144 -319 224 -143 57 -192 125 -153 213 22 50 79 90 142 101 59 10 133
-18 174 -65 l35 -41 55 32 c31 17 58 35 61 40 9 14 -58 93 -108 127 -72 48
-183 65 -280 42z"/>
<path d="M6780 4260 l0 -570 154 0 c246 0 360 27 499 118 108 70 175 168 208
302 16 68 17 237 1 309 -43 190 -198 335 -418 391 -63 16 -110 20 -261 20
l-183 0 0 -570z m378 414 c94 -20 200 -74 247 -125 103 -115 129 -323 59 -480
-65 -144 -249 -237 -471 -239 l-63 0 0 435 0 436 78 -6 c42 -3 110 -13 150
-21z"/>
<path d="M11370 4260 l0 -570 75 0 75 0 0 570 0 570 -75 0 -75 0 0 -570z"/>
</g>
</svg>
