<?xml version="1.0" standalone="no"?>
<!DOCTYPE svg PUBLIC "-//W3C//DTD SVG 20010904//EN"
 "http://www.w3.org/TR/2001/REC-SVG-20010904/DTD/svg10.dtd">
<svg version="1.0" xmlns="http://www.w3.org/2000/svg"
 width="819.000000pt" height="514.000000pt" viewBox="0 0 819.000000 514.000000"
 preserveAspectRatio="xMidYMid meet">
<metadata>
Created by potrace 1.15, written by Peter Selinger 2001-2017
</metadata>
<g transform="translate(0.000000,514.000000) scale(0.100000,-0.100000)"
fill="#000000" stroke="none">
<path d="M2872 5058 c-13 -46 -39 -120 -59 -166 -38 -90 -36 -106 13 -100 35
4 57 44 109 200 46 140 46 148 -3 148 l-37 0 -23 -82z"/>
<path d="M1604 5066 c-4 -16 4 -39 24 -72 17 -27 47 -97 67 -156 37 -108 54
-128 74 -89 8 14 2 43 -23 119 -62 183 -124 270 -142 198z"/>
<path d="M4037 4518 c-70 -55 -127 -106 -127 -113 0 -6 9 -20 19 -29 19 -17
23 -15 132 71 61 48 121 95 132 104 23 18 18 42 -11 58 -15 8 -39 -7 -145 -91z"/>
<path d="M552 4551 c-9 -5 8 -18 54 -41 43 -21 91 -56 131 -97 58 -58 68 -64
100 -61 20 2 38 8 40 15 2 6 -21 36 -52 67 -90 88 -227 147 -273 117z"/>
<path d="M4286 3838 c-19 -27 -21 -79 -4 -96 8 -8 58 -12 160 -12 l148 0 0
-495 c0 -463 1 -496 18 -502 9 -4 34 -17 54 -30 21 -13 40 -23 43 -23 3 0 5
112 5 248 0 137 3 371 7 519 l6 271 149 7 c135 7 150 9 163 28 18 26 20 81 3
94 -8 6 -157 11 -375 11 l-362 2 -15 -22z"/>
<path d="M5105 3838 l-27 -21 3 -748 c3 -545 7 -751 16 -760 13 -13 59 -5 88
17 19 14 20 27 20 302 1 236 4 302 19 371 23 112 51 183 82 212 23 22 27 22
52 9 41 -24 90 -95 111 -165 34 -108 43 -217 41 -465 -2 -129 -2 -240 -1 -247
0 -7 10 -17 22 -23 28 -16 78 5 90 37 5 13 9 126 9 251 0 334 -18 462 -85 598
-83 169 -204 200 -319 81 l-49 -50 6 144 c4 79 10 219 14 312 l6 167 -35 0
c-21 0 -46 -9 -63 -22z"/>
<path d="M6844 3817 l-26 -23 8 -740 9 -739 38 1 c20 1 46 9 57 19 19 17 20
34 22 304 l3 286 42 -70 c23 -38 67 -131 98 -205 142 -345 137 -335 173 -338
39 -4 82 21 82 47 0 22 -136 363 -191 476 -21 44 -53 102 -72 130 l-34 50 47
55 c87 102 191 254 188 275 -2 16 -10 20 -43 19 -66 -2 -91 -19 -151 -101 -32
-43 -76 -103 -98 -133 l-41 -55 -6 110 c-4 61 -7 233 -8 383 l-1 272 -34 0
c-22 0 -45 -9 -62 -23z"/>
<path d="M5817 3709 c-24 -14 -47 -62 -47 -99 0 -35 30 -70 60 -70 29 0 96 36
104 55 8 22 7 77 -2 91 -20 31 -81 43 -115 23z"/>
<path d="M10 3396 c-6 -8 -10 -25 -8 -38 3 -20 11 -24 53 -29 28 -3 97 -12
154 -19 l103 -14 19 23 c30 37 25 61 -13 61 -18 0 -71 7 -118 15 -109 19 -174
19 -190 1z"/>
<path d="M5828 3391 l-24 -20 -1 -518 c-1 -338 3 -522 9 -530 15 -19 62 -16
89 6 l23 18 0 515 c1 552 1 548 -49 548 -12 0 -33 -9 -47 -19z"/>
<path d="M6111 3349 c-23 -21 -23 -25 -17 -163 4 -78 11 -304 16 -504 6 -257
12 -367 20 -378 19 -22 64 -17 90 11 23 24 23 25 16 207 -11 285 14 465 82
591 63 118 157 115 216 -6 40 -81 50 -207 37 -429 -16 -260 -15 -343 5 -362 8
-9 20 -16 25 -16 24 0 69 32 73 53 11 54 16 579 6 665 -25 219 -102 315 -256
316 -62 1 -76 -2 -112 -27 -22 -16 -51 -44 -63 -62 -13 -18 -27 -31 -31 -29
-4 3 -8 32 -8 64 0 64 -15 90 -54 90 -12 0 -33 -10 -45 -21z"/>
<path d="M7511 2744 l-23 -17 3 -328 c2 -181 3 -329 2 -329 -1 0 -18 11 -38
24 -120 81 -288 10 -370 -157 -45 -92 -65 -186 -65 -313 0 -297 104 -522 263
-565 55 -15 109 -3 167 36 44 30 50 31 50 15 0 -42 70 -48 106 -9 16 18 17 71
11 824 -4 612 -8 809 -17 820 -16 20 -60 19 -89 -1z m-134 -753 c34 -22 82
-86 107 -145 13 -32 16 -81 16 -280 l0 -242 -32 -54 c-60 -98 -118 -118 -186
-63 -128 102 -184 489 -100 685 27 64 88 118 131 118 17 0 46 -9 64 -19z"/>
<path d="M7690 2730 c0 -5 9 -10 20 -10 18 0 20 -7 20 -60 0 -47 3 -60 15 -60
12 0 15 13 15 60 0 57 1 60 25 60 24 0 25 -3 25 -60 0 -47 3 -60 15 -60 11 0
15 11 16 38 l1 37 12 -35 c17 -47 40 -50 53 -8 l11 33 1 -32 c1 -22 6 -33 16
-33 12 0 15 14 15 70 0 62 -2 70 -19 70 -13 0 -22 -12 -31 -46 -14 -50 -22
-48 -40 9 l-12 37 -79 0 c-46 0 -79 -4 -79 -10z"/>
<path d="M4076 2688 l-25 -23 10 -120 c5 -66 13 -412 16 -770 l6 -650 34 -17
c28 -15 61 -18 197 -18 244 0 355 34 445 136 81 92 109 248 77 430 -24 141
-73 233 -156 293 l-39 28 35 34 c46 44 72 96 90 178 35 167 0 334 -88 418 -78
75 -199 103 -438 103 -130 0 -141 -1 -164 -22z m350 -111 c122 -26 189 -87
219 -202 34 -132 4 -241 -79 -290 -45 -26 -160 -59 -180 -52 -7 3 -51 2 -98
-2 l-85 -6 -7 235 c-4 129 -9 254 -12 277 l-6 42 68 4 c38 1 80 4 94 5 14 1
52 -4 86 -11z m113 -708 c91 -40 150 -123 177 -248 40 -191 -11 -319 -150
-370 -68 -25 -218 -38 -309 -27 l-57 7 0 329 0 329 93 4 c131 5 194 -1 246
-24z"/>
<path d="M549 2126 c-40 -35 -107 -85 -150 -110 -73 -44 -89 -60 -89 -92 0
-54 229 80 334 196 41 46 42 63 4 68 -20 2 -43 -12 -99 -62z"/>
<path d="M5211 2147 c-103 -21 -192 -133 -237 -297 -26 -93 -26 -356 0 -455
39 -151 115 -269 200 -309 48 -23 133 -18 191 9 61 29 138 112 173 186 105
220 88 562 -37 756 -68 105 -154 138 -290 110z m140 -140 c166 -112 172 -595
9 -758 -103 -103 -186 -61 -247 126 -34 106 -44 331 -19 439 26 109 57 156
124 188 70 33 90 34 133 5z"/>
<path d="M6000 2124 c-150 -75 -317 -349 -222 -362 53 -8 79 15 113 100 67
168 162 211 248 113 31 -36 67 -132 77 -209 7 -48 7 -48 -17 -40 -13 5 -55 9
-94 9 -58 -1 -79 -6 -123 -30 -113 -62 -196 -187 -227 -344 -29 -143 -8 -233
65 -273 53 -30 196 -21 315 20 54 18 91 26 94 20 2 -6 16 -24 30 -41 26 -29
29 -29 65 -17 55 18 65 48 36 107 -22 43 -23 57 -19 163 2 63 4 201 4 305 -1
167 -4 200 -24 272 -42 150 -109 224 -209 231 -47 3 -67 -2 -112 -24z m158
-510 c12 -8 33 -36 45 -62 22 -45 23 -52 14 -177 l-10 -130 -91 -34 c-50 -19
-116 -36 -147 -39 -51 -4 -58 -2 -77 23 -50 64 -10 283 66 362 66 68 150 92
200 57z"/>
<path d="M6569 2125 l-26 -14 -6 -362 c-4 -199 -7 -431 -7 -516 l0 -153 34 0
c19 0 45 9 60 21 l26 20 0 160 c0 132 4 179 25 278 31 144 64 250 105 332 37
73 53 81 87 45 27 -30 55 -30 101 0 58 38 -13 124 -103 124 -66 0 -122 -39
-179 -125 l-26 -40 0 123 0 122 -32 0 c-18 -1 -45 -7 -59 -15z"/>
</g>
</svg>
