<?xml version="1.0" standalone="no"?>
<!DOCTYPE svg PUBLIC "-//W3C//DTD SVG 20010904//EN"
 "http://www.w3.org/TR/2001/REC-SVG-20010904/DTD/svg10.dtd">
<svg version="1.0" xmlns="http://www.w3.org/2000/svg"
 width="300.000000pt" height="133.000000pt" viewBox="0 0 300.000000 133.000000"
 preserveAspectRatio="xMidYMid meet">
<metadata>
Created by potrace 1.15, written by Peter Selinger 2001-2017
</metadata>
<g transform="translate(0.000000,133.000000) scale(0.100000,-0.100000)"
fill="#000000" stroke="none">
<path d="M1803 1243 c-28 -5 -73 -58 -73 -85 0 -28 31 -77 52 -84 16 -5 18
-21 18 -177 l0 -172 -34 -1 c-55 -2 -84 -12 -119 -44 l-34 -29 -24 25 c-66 71
-165 76 -235 12 -21 -19 -21 -18 -53 11 -40 38 -90 53 -134 40 -17 -5 -33 -9
-33 -9 -1 0 -10 35 -19 78 -41 187 -139 294 -298 326 -68 14 -160 5 -208 -20
-24 -12 -34 -13 -45 -3 -16 13 -111 6 -259 -21 -27 -5 -72 -11 -100 -15 -74
-9 -102 -23 -120 -62 -16 -33 -16 -37 10 -106 14 -40 32 -81 39 -92 12 -18 11
-24 -5 -44 -58 -71 41 -179 116 -127 36 24 135 56 176 56 49 0 99 -22 118 -52
38 -61 13 -186 -48 -241 -105 -94 -281 -64 -281 48 0 16 4 36 9 44 12 18 -12
68 -43 93 -26 22 -79 23 -111 2 -26 -17 -54 -79 -60 -134 -3 -28 5 -55 33
-111 43 -86 105 -140 192 -166 101 -30 187 -23 293 24 51 23 59 24 75 11 42
-36 198 -49 277 -23 28 10 71 32 96 50 l45 32 23 -39 c57 -99 182 -105 258
-13 l31 37 40 -40 c88 -88 197 -75 267 32 l15 23 45 -21 c28 -13 44 -28 45
-39 0 -26 63 -87 89 -87 11 0 55 5 98 12 69 10 82 15 110 46 26 28 36 33 58
28 15 -4 42 -2 60 4 27 9 40 8 62 -3 40 -20 86 -27 119 -18 24 7 35 3 63 -22
32 -28 37 -29 100 -23 128 12 148 21 177 78 17 33 6 68 -33 104 -22 20 -28 35
-28 68 l0 43 45 -4 c33 -3 54 1 77 16 39 25 92 96 100 134 3 15 11 28 17 28
59 6 73 11 88 29 16 20 15 42 -4 66 -9 12 -59 11 -110 -2 -23 -5 -29 -2 -37
17 -30 80 -135 83 -218 6 -13 -11 -23 -16 -23 -10 0 23 -42 23 -117 -1 -20 -6
-25 -2 -39 34 -21 53 -57 80 -105 80 -47 0 -99 -42 -134 -109 -13 -25 -24 -41
-24 -36 -1 21 60 114 88 134 41 30 110 29 143 -2 14 -13 32 -40 39 -61 8 -21
18 -35 25 -32 47 18 96 26 111 17 12 -6 27 -2 52 14 87 57 180 50 204 -15 11
-28 35 -39 50 -24 4 4 -3 25 -16 47 -16 29 -36 46 -70 62 -45 21 -51 22 -94 9
-26 -8 -58 -21 -71 -30 -33 -22 -162 -29 -162 -10 0 21 -74 83 -108 91 -41 9
-101 -9 -134 -40 -15 -14 -28 -25 -30 -25 -2 0 -4 59 -6 132 -4 155 -13 179
-80 205 -24 9 -50 27 -59 39 -8 12 -28 27 -45 33 -30 11 -120 13 -165 4z m155
-85 c2 -13 -3 -18 -18 -18 l-21 0 2 -439 1 -439 31 2 c22 1 32 -4 35 -15 2
-13 -9 -18 -50 -23 -29 -4 -69 -10 -88 -13 -34 -6 -34 -7 -10 -14 l25 -8 -25
2 c-19 2 -25 8 -25 27 0 20 6 26 28 28 26 3 27 6 27 57 l0 54 -35 -21 c-41
-23 -104 -21 -134 6 -10 9 -22 16 -27 16 -5 -1 5 -12 21 -25 17 -14 25 -25 19
-25 -15 0 -56 45 -47 53 3 4 -1 15 -10 24 -8 10 -21 39 -27 64 -16 62 0 119
45 164 46 45 89 53 149 26 l46 -20 0 258 0 259 -30 4 c-16 3 -30 1 -30 -3 0
-4 12 -10 28 -12 l27 -4 -28 -2 c-29 -1 -43 18 -33 44 9 24 149 17 154 -7z
m85 -53 l35 -14 6 -223 c4 -123 7 -293 9 -378 l2 -155 28 -3 c17 -2 27 -9 27
-20 0 -14 -13 -17 -78 -19 -42 -2 -83 1 -91 6 -21 13 -3 31 31 31 l31 0 -5
372 -5 372 -32 11 c-25 8 -29 13 -19 23 15 15 18 15 61 -3z m-1191 -51 c64
-21 122 -74 157 -144 43 -87 54 -155 49 -295 -8 -181 -46 -263 -149 -320 -45
-25 -66 -29 -124 -30 -38 0 -90 3 -115 8 -33 5 -41 4 -30 -4 13 -9 13 -10 0
-6 -8 2 -15 14 -15 28 0 22 4 24 40 21 l40 -3 -3 361 -2 360 -33 -2 c-17 -1
-35 -7 -39 -13 -5 -6 -8 -4 -8 6 0 19 17 35 45 42 44 11 144 6 187 -9z m-305
-19 c1 -5 -49 -57 -111 -115 -63 -58 -115 -108 -115 -112 -1 -4 14 -4 32 0 96
21 195 -6 260 -73 124 -128 66 -365 -111 -452 -51 -25 -68 -28 -157 -28 -90 0
-104 3 -145 26 -25 15 -53 36 -64 48 -10 11 -23 18 -29 14 -6 -3 -7 -1 -3 5 4
7 0 22 -8 34 -20 28 -21 117 -3 142 7 10 22 16 33 14 16 -3 19 -12 19 -70 1
-124 68 -183 205 -183 168 1 270 110 270 287 0 78 -15 121 -56 160 -38 35 -74
48 -138 48 -55 0 -150 -27 -188 -54 -12 -9 -32 -17 -43 -17 -16 -1 -17 -2 -3
-6 9 -2 27 1 40 7 22 11 22 11 3 -5 -27 -22 -61 -16 -57 10 2 11 60 78 130
149 l127 128 -75 -6 c-117 -10 -160 -18 -160 -28 0 -5 9 -27 21 -50 23 -46 15
-67 -19 -49 -23 12 -67 120 -55 132 11 10 319 58 362 56 19 -1 36 -6 38 -12z
m1777 -217 c14 -6 33 -22 41 -34 21 -32 45 -138 45 -200 l0 -50 -107 -13 c-59
-7 -111 -15 -115 -17 -5 -3 -6 -22 -2 -42 16 -98 45 -139 106 -148 29 -5 38
-2 52 17 9 13 16 35 16 49 0 31 17 51 36 43 31 -12 -3 -133 -36 -133 -6 0 -9
-4 -6 -8 7 -11 -95 2 -119 15 -34 19 -83 76 -99 115 -48 115 13 341 107 398
37 23 47 24 81 8z m431 -63 c14 -13 25 -33 25 -44 0 -18 6 -20 71 -18 94 3
106 -18 17 -27 -35 -4 -68 -10 -74 -14 -6 -4 -20 -27 -31 -52 -25 -58 -46 -75
-93 -75 -21 0 -36 -3 -33 -8 3 -5 20 -7 38 -5 19 2 31 0 29 -4 -8 -13 -62 -9
-71 5 -28 45 -7 98 54 134 37 22 43 29 43 59 0 20 -5 34 -12 35 -26 3 -53 -3
-63 -13 -7 -6 0 -7 20 -4 17 4 23 3 15 0 -8 -4 -23 -11 -34 -16 -13 -7 -16 -7
-12 1 16 25 -12 9 -46 -26 -59 -62 -60 -67 -52 -244 l7 -160 24 6 c16 4 25 1
29 -10 4 -9 4 -18 2 -20 -3 -3 -43 -11 -89 -17 -74 -11 -80 -13 -49 -19 l35
-7 -35 1 c-28 2 -36 6 -38 25 -3 18 2 23 27 28 l31 7 0 192 c0 107 3 201 6
210 6 14 2 15 -30 10 -29 -6 -36 -4 -36 9 0 9 15 19 41 26 47 13 69 8 69 -17
0 -14 5 -12 28 10 36 35 100 66 135 67 17 0 38 -10 52 -25z m-1495 -113 c38
-39 53 -100 48 -197 -7 -124 -62 -205 -139 -205 -29 0 -73 30 -90 61 -34 64
-28 213 11 289 42 82 117 105 170 52z m282 -21 c44 -46 68 -119 68 -206 0 -63
-25 -131 -55 -148 -9 -4 -13 -11 -11 -15 9 -14 -85 -4 -109 12 -99 65 -126
264 -48 357 51 60 97 60 155 0z"/>
<path d="M1721 601 c-26 -26 -44 -96 -37 -140 17 -106 124 -135 163 -44 20 49
13 134 -14 171 -26 35 -83 42 -112 13z"/>
<path d="M750 671 l1 -371 35 0 c81 0 162 61 191 144 28 80 25 349 -5 429 -38
104 -87 148 -181 163 l-42 7 1 -372z m113 246 c51 -48 62 -96 62 -277 0 -138
-2 -159 -21 -195 -12 -22 -34 -48 -51 -57 l-29 -18 -3 218 c-1 119 -3 250 -4
290 -1 39 1 72 5 72 4 0 22 -15 41 -33z"/>
<path d="M2260 768 c-34 -36 -50 -74 -65 -151 -7 -40 -12 -73 -11 -74 2 -2 43
3 92 10 l89 12 -4 43 c-1 24 -10 74 -19 110 -19 77 -43 91 -82 50z"/>
<path d="M1157 610 c-35 -41 -50 -99 -51 -190 0 -78 19 -135 50 -147 22 -8 64
25 81 65 22 51 24 225 3 267 -21 41 -51 43 -83 5z"/>
<path d="M1431 609 c-46 -50 -51 -181 -10 -265 23 -50 50 -68 83 -60 32 8 46
46 46 126 0 168 -58 265 -119 199z"/>
</g>
</svg>
