<?xml version="1.0" standalone="no"?>
<!DOCTYPE svg PUBLIC "-//W3C//DTD SVG 20010904//EN"
 "http://www.w3.org/TR/2001/REC-SVG-20010904/DTD/svg10.dtd">
<svg version="1.0" xmlns="http://www.w3.org/2000/svg"
 width="1024.000000pt" height="223.000000pt" viewBox="0 0 1024.000000 223.000000"
 preserveAspectRatio="xMidYMid meet">
<metadata>
Created by potrace 1.15, written by Peter Selinger 2001-2017
</metadata>
<g transform="translate(0.000000,223.000000) scale(0.100000,-0.100000)"
fill="#000000" stroke="none">
<path d="M7738 1799 c-17 -9 -18 -54 -18 -722 0 -392 4 -718 8 -725 7 -9 40
-12 133 -10 l124 3 5 53 5 53 40 -41 c68 -70 163 -104 285 -103 213 2 389 150
436 368 17 77 17 235 0 305 -53 222 -224 360 -446 360 -126 0 -221 -38 -288
-114 l-32 -37 0 305 c0 268 -2 305 -16 310 -26 10 -218 6 -236 -5z m576 -726
c182 -51 239 -300 100 -438 -48 -48 -92 -65 -169 -65 -74 0 -117 16 -167 60
-51 44 -88 126 -88 193 0 114 71 216 172 249 68 21 79 22 152 1z"/>
<path d="M8892 1802 c-10 -7 -12 -160 -10 -733 l3 -724 130 0 130 0 3 720 c2
668 1 721 -15 733 -19 14 -220 17 -241 4z"/>
<path d="M3754 1763 c-8 -21 -28 -71 -44 -110 -17 -40 -43 -107 -60 -148 -57
-142 -92 -230 -101 -250 -4 -11 -18 -45 -29 -75 -12 -30 -26 -64 -30 -75 -5
-11 -19 -45 -30 -75 -21 -53 -46 -115 -111 -277 -17 -43 -38 -96 -46 -118 -9
-22 -21 -53 -28 -70 -7 -16 -21 -50 -30 -75 -10 -25 -24 -59 -32 -75 -9 -17
-14 -40 -12 -50 4 -19 14 -20 150 -23 l145 -3 21 53 c12 29 35 94 53 143 17
50 35 100 40 113 l10 22 287 0 288 0 18 -48 c22 -56 42 -108 61 -159 8 -21 22
-57 31 -80 l18 -43 142 0 c156 0 162 2 145 57 -8 28 -32 90 -50 128 -5 11 -19
45 -30 75 -11 30 -27 69 -34 85 -8 17 -22 50 -31 75 -10 25 -21 54 -26 65 -4
11 -18 45 -30 75 -12 30 -27 69 -34 85 -7 17 -74 185 -150 375 -75 190 -143
359 -150 375 -7 17 -15 38 -19 48 -5 15 -21 17 -146 17 l-141 0 -15 -37z m177
-364 c4 -13 17 -49 29 -79 12 -30 25 -66 30 -80 5 -14 18 -50 30 -80 47 -124
79 -223 74 -231 -3 -5 -88 -9 -190 -9 l-184 0 0 24 c0 14 4 27 9 31 5 3 13 20
17 38 3 17 12 45 19 62 12 28 26 64 60 155 79 209 90 225 106 169z"/>
<path d="M4756 1783 c-60 -32 -86 -77 -86 -146 2 -92 55 -148 147 -154 72 -5
118 17 151 73 45 77 12 191 -65 228 -43 20 -109 20 -147 -1z"/>
<path d="M6013 1683 c-10 -3 -13 -51 -13 -188 l0 -184 -82 -3 -83 -3 -3 -104
c-2 -77 1 -107 10 -113 7 -4 45 -8 85 -8 l72 0 3 -267 c5 -315 9 -336 90 -407
60 -52 122 -69 243 -64 l80 3 3 114 c3 126 1 131 -56 131 -18 0 -44 7 -57 16
l-25 16 0 229 0 228 93 3 92 3 0 110 0 110 -92 3 -93 3 0 183 c0 158 -2 185
-16 190 -19 7 -233 7 -251 -1z"/>
<path d="M23 1541 l-23 -19 0 -506 0 -505 22 -15 c37 -26 74 -19 176 33 53 27
144 72 202 99 181 86 540 258 715 344 70 34 85 50 85 93 0 40 -15 57 -65 78
-22 9 -78 32 -125 51 -47 19 -139 55 -205 81 -66 25 -151 59 -190 75 -38 16
-124 50 -190 75 -66 26 -129 51 -140 55 -11 5 -45 19 -75 30 -30 12 -70 28
-88 36 -44 19 -72 17 -99 -5z"/>
<path d="M6940 1344 c-217 -37 -357 -171 -397 -379 -59 -312 74 -575 326 -640
106 -27 244 -16 326 28 17 8 48 34 70 57 l40 41 5 -53 5 -53 119 -3 c78 -2
123 1 132 9 12 9 14 91 14 473 0 253 -4 467 -8 474 -7 9 -40 12 -133 10 l-124
-3 -5 -55 -5 -55 -18 27 c-52 77 -236 141 -347 122z m191 -270 c140 -39 214
-203 158 -346 -39 -101 -121 -158 -225 -158 -86 0 -126 15 -177 65 -139 135
-80 392 100 441 64 17 77 17 144 -2z"/>
<path d="M5597 1325 c-61 -17 -128 -68 -164 -124 l-28 -45 -5 75 -5 74 -130 0
-130 0 0 -480 0 -480 130 0 130 0 5 260 c5 248 6 262 29 308 41 84 101 120
221 133 30 4 61 11 68 17 8 7 12 48 12 143 l0 134 -42 -1 c-24 0 -64 -7 -91
-14z"/>
<path d="M9642 1325 c-107 -26 -174 -66 -246 -146 -63 -70 -96 -145 -114 -262
-15 -90 -15 -107 -1 -190 20 -113 55 -190 121 -262 147 -161 429 -207 640
-104 78 38 168 106 167 127 0 20 -97 160 -121 175 -12 8 -25 3 -55 -21 -76
-60 -141 -86 -224 -90 -61 -3 -86 0 -122 16 -59 26 -102 66 -127 117 -39 80
-63 74 328 77 l347 3 3 98 c7 239 -115 413 -325 462 -77 18 -197 18 -271 0z
m209 -220 c40 -14 109 -77 109 -100 0 -5 3 -20 6 -32 l6 -23 -211 0 c-199 0
-211 1 -211 19 0 22 45 91 74 111 54 39 155 50 227 25z"/>
<path d="M4695 1298 c-3 -7 -4 -224 -3 -483 l3 -470 129 -3 c97 -2 131 1 138
10 13 22 10 932 -4 946 -17 17 -257 17 -263 0z"/>
</g>
</svg>
