<?xml version="1.0" standalone="no"?>
<!DOCTYPE svg PUBLIC "-//W3C//DTD SVG 20010904//EN"
 "http://www.w3.org/TR/2001/REC-SVG-20010904/DTD/svg10.dtd">
<svg version="1.0" xmlns="http://www.w3.org/2000/svg"
 width="300.000000pt" height="153.000000pt" viewBox="0 0 300.000000 153.000000"
 preserveAspectRatio="xMidYMid meet">
<metadata>
Created by potrace 1.15, written by Peter Selinger 2001-2017
</metadata>
<g transform="translate(0.000000,153.000000) scale(0.100000,-0.100000)"
fill="#000000" stroke="none">
<path d="M1297 1515 c-648 -105 -1137 -558 -1268 -1172 -12 -54 -23 -153 -26
-220 l-6 -123 252 0 251 0 0 90 0 90 60 0 60 0 0 -90 0 -90 95 0 95 0 0 90 c0
89 0 90 25 90 25 0 25 -1 25 -90 l0 -90 100 0 100 0 0 90 0 90 115 0 115 0 0
-90 0 -90 100 0 100 0 0 90 c0 83 1 90 20 90 19 0 20 -7 20 -90 l0 -90 106 0
106 0 -8 43 c-4 23 -7 85 -6 137 1 229 126 427 335 530 200 99 420 86 599 -36
76 -51 155 -133 194 -200 l26 -44 59 0 c41 0 59 4 59 13 0 22 -57 160 -103
254 -103 203 -273 409 -447 539 -85 64 -86 65 -98 123 -7 32 -18 64 -25 70
-16 12 -66 1 -103 -24 -21 -14 -27 -14 -63 1 -26 10 -41 24 -45 39 -9 34 -55
85 -76 85 -10 0 -32 -12 -49 -26 l-30 -25 -98 22 c-127 28 -431 36 -566 14z
m850 -311 c79 -38 109 -151 60 -225 -29 -45 -106 -83 -150 -75 -83 16 -137 79
-137 161 0 117 119 190 227 139z"/>
</g>
</svg>
