<?xml version="1.0" standalone="no"?>
<!DOCTYPE svg PUBLIC "-//W3C//DTD SVG 20010904//EN"
 "http://www.w3.org/TR/2001/REC-SVG-20010904/DTD/svg10.dtd">
<svg version="1.0" xmlns="http://www.w3.org/2000/svg"
 width="1500.000000pt" height="542.000000pt" viewBox="0 0 1500.000000 542.000000"
 preserveAspectRatio="xMidYMid meet">
<metadata>
Created by potrace 1.15, written by Peter Selinger 2001-2017
</metadata>
<g transform="translate(0.000000,542.000000) scale(0.100000,-0.100000)"
fill="#000000" stroke="none">
<path d="M1660 5409 c-551 -45 -1046 -339 -1359 -804 -301 -449 -382 -1063
-207 -1582 124 -368 400 -703 798 -970 203 -136 435 -235 663 -285 98 -21 117
-22 1123 -25 l1022 -4 0 466 0 465 -959 0 c-1025 0 -1011 -1 -1155 50 -270 93
-501 347 -582 640 -29 102 -27 359 4 463 47 163 131 297 269 427 122 115 214
168 379 217 54 16 137 18 1052 21 l992 3 0 464 0 465 -972 -1 c-535 -1 -1016
-5 -1068 -10z"/>
<path d="M5260 5410 c-490 -44 -925 -270 -1236 -643 -254 -303 -382 -622 -415
-1039 -42 -511 122 -967 481 -1342 298 -311 705 -546 1067 -616 357 -69 790
-7 1124 160 181 91 315 188 466 338 254 253 419 556 488 896 99 486 20 988
-213 1364 -195 314 -458 554 -777 708 -182 88 -316 130 -509 159 -127 19 -354
26 -476 15z m310 -890 c125 -14 193 -34 307 -90 84 -41 119 -66 191 -135 264
-251 368 -577 296 -928 -34 -165 -119 -321 -248 -452 -127 -129 -267 -212
-431 -256 -114 -31 -317 -31 -430 0 -469 127 -783 609 -701 1078 70 401 403
733 787 782 91 12 133 12 229 1z"/>
<path d="M7180 4955 l0 -465 963 0 c1037 -1 1041 -1 1181 -54 239 -91 453
-317 536 -566 112 -335 25 -676 -243 -949 -110 -112 -227 -184 -372 -227 -56
-17 -132 -18 -1062 -21 l-1003 -4 0 -465 0 -465 1023 3 c1019 3 1022 3 1130
26 557 118 1135 563 1381 1065 143 293 197 648 151 1004 -54 415 -219 754
-511 1047 -320 319 -688 488 -1149 526 -76 6 -509 10 -1076 10 l-949 0 0 -465z"/>
<path d="M11040 4955 l0 -455 1980 0 1980 0 0 455 0 455 -1980 0 -1980 0 0
-455z"/>
<path d="M11040 2905 l0 -1155 1980 0 1980 0 0 455 0 455 -1510 0 -1510 0 0
240 0 240 580 0 580 0 0 460 0 460 -1050 0 -1050 0 0 -1155z"/>
<path d="M10943 1060 c-102 -21 -204 -94 -265 -190 -36 -56 -82 -200 -98 -305
-27 -176 21 -318 123 -372 40 -20 153 -28 217 -14 82 18 169 60 175 85 28 120
75 351 75 367 0 18 -8 19 -130 19 l-130 0 -7 -27 c-3 -16 -7 -46 -7 -68 l-1
-40 46 -3 47 -3 -20 -87 c-10 -47 -24 -90 -31 -94 -23 -15 -80 -21 -115 -12
-59 15 -77 51 -76 152 3 203 88 412 184 452 46 19 149 9 187 -18 17 -12 36
-22 41 -22 6 0 27 23 47 51 34 48 35 52 20 69 -43 48 -191 79 -282 60z"/>
<path d="M9063 1038 c-13 -21 -223 -831 -217 -840 3 -4 34 -8 70 -8 58 0 65 2
73 23 4 12 34 135 65 272 66 285 74 313 75 241 1 -54 19 -261 27 -313 5 -32 6
-33 53 -33 l48 0 90 168 c123 226 125 230 119 209 -17 -53 -106 -549 -101
-557 3 -6 37 -10 75 -10 64 0 70 2 75 23 21 96 132 824 126 830 -4 4 -39 7
-76 5 l-68 -3 -70 -125 c-38 -69 -91 -166 -117 -216 l-48 -91 -6 46 c-3 25
-11 116 -17 201 -7 85 -16 163 -21 173 -7 14 -22 17 -78 17 -44 0 -72 -4 -77
-12z"/>
<path d="M10144 1042 c-15 -10 -424 -816 -424 -836 0 -15 11 -16 82 -14 l81 3
51 112 50 113 102 0 102 0 7 -87 c3 -49 7 -99 8 -113 2 -24 5 -25 76 -28 41
-2 78 1 83 6 13 13 -61 835 -76 844 -6 4 -38 8 -71 8 -33 0 -65 -4 -71 -8z
m35 -419 l1 -93 -75 0 c-41 0 -75 2 -75 4 0 2 29 67 65 144 36 78 66 147 67
154 3 30 16 -124 17 -209z"/>
<path d="M11657 1013 c-54 -87 -407 -797 -403 -810 4 -9 27 -13 81 -13 l76 0
54 115 54 115 100 0 c56 0 102 -3 102 -7 1 -5 4 -55 8 -113 l6 -105 83 -3 82
-3 0 35 c0 47 -69 798 -75 814 -3 8 -28 12 -75 12 l-70 0 -23 -37z m49 -480
c-2 -2 -35 -3 -74 -1 l-71 3 72 158 72 158 3 -157 c1 -86 1 -159 -2 -161z"/>
<path d="M12228 984 c-18 -39 -27 -69 -22 -74 5 -5 76 -11 156 -12 l147 -3
-90 -115 c-351 -446 -360 -458 -374 -517 -7 -32 -11 -61 -9 -65 3 -5 124 -8
268 -8 199 0 266 3 273 13 12 14 43 105 43 124 0 10 -41 13 -181 15 l-180 3
223 282 c212 268 225 286 236 343 7 33 10 65 7 70 -4 6 -97 10 -236 10 l-230
0 -31 -66z"/>
<path d="M12925 1038 c-11 -32 -23 -103 -19 -110 3 -4 23 -8 46 -8 37 0 40 -2
35 -22 -3 -13 -31 -142 -62 -288 -31 -146 -58 -273 -61 -282 -4 -14 -16 -18
-49 -18 -49 0 -55 -9 -58 -82 l-2 -33 169 0 170 0 12 49 c7 28 11 53 8 58 -3
4 -23 8 -45 8 -25 0 -39 5 -38 13 0 6 28 143 63 302 l62 290 41 3 c52 4 62 16
65 78 l3 49 -168 3 c-129 2 -168 0 -172 -10z"/>
<path d="M13523 1038 c-12 -19 -183 -821 -178 -835 3 -9 26 -13 70 -13 58 0
66 2 75 23 10 22 94 416 106 497 l7 45 43 -135 c23 -74 63 -201 89 -282 l47
-148 59 0 c32 0 59 1 59 3 0 1 40 191 90 421 49 231 87 423 84 428 -3 4 -34 8
-70 8 -57 0 -65 -2 -74 -22 -7 -18 -65 -284 -106 -492 -5 -23 -17 4 -60 140
-29 93 -68 214 -86 269 l-33 100 -57 3 c-38 2 -59 -1 -65 -10z"/>
<path d="M14386 1041 c-9 -13 -176 -801 -176 -828 l0 -23 222 2 223 3 12 55
c7 30 11 61 8 67 -3 10 -40 13 -140 13 -74 0 -135 4 -135 8 0 10 39 190 46
215 5 15 19 17 119 17 l115 0 6 28 c3 15 10 41 14 59 5 20 4 35 -3 42 -7 7
-53 11 -115 11 l-104 0 7 33 c4 17 14 62 22 100 l15 67 129 0 129 0 30 60 c17
34 28 65 25 70 -8 12 -442 13 -449 1z"/>
</g>
</svg>
