<?xml version="1.0" standalone="no"?>
<!DOCTYPE svg PUBLIC "-//W3C//DTD SVG 20010904//EN"
 "http://www.w3.org/TR/2001/REC-SVG-20010904/DTD/svg10.dtd">
<svg version="1.0" xmlns="http://www.w3.org/2000/svg"
 width="300.000000pt" height="300.000000pt" viewBox="0 0 300.000000 300.000000"
 preserveAspectRatio="xMidYMid meet">
<metadata>
Created by potrace 1.15, written by Peter Selinger 2001-2017
</metadata>
<g transform="translate(0.000000,300.000000) scale(0.100000,-0.100000)"
fill="#000000" stroke="none">
<path d="M1530 2347 c-14 -6 -96 -48 -182 -95 l-157 -83 -26 -56 c-22 -49 -25
-69 -25 -166 l0 -110 21 19 c12 10 34 37 49 59 26 37 35 42 102 58 40 10 80
17 88 17 8 0 62 56 119 125 l104 125 95 -6 94 -7 -7 24 c-20 62 -24 68 -67 79
-24 6 -59 15 -78 21 -46 12 -99 10 -130 -4z"/>
<path d="M1729 1866 c-31 -73 -81 -302 -89 -409 l-9 -119 31 -26 c49 -42 269
-171 310 -182 36 -10 51 -5 319 118 l281 128 25 80 c13 43 35 114 49 156 l24
78 -36 54 c-35 54 -37 55 -102 65 -37 6 -87 14 -112 16 -25 3 -110 16 -190 29
-95 16 -204 26 -318 29 -170 5 -174 4 -183 -17z"/>
<path d="M1820 910 c0 -11 -4 -20 -10 -20 -5 0 -10 -11 -10 -24 0 -14 5 -28
10 -31 6 -3 10 -26 10 -51 0 -34 6 -51 25 -69 27 -28 38 -30 84 -14 35 12 35
13 21 40 -8 14 -17 18 -35 13 -23 -6 -25 -4 -25 34 0 34 3 41 23 44 16 2 23
11 25 31 3 23 0 27 -21 27 -16 0 -26 7 -30 20 -4 15 -14 20 -36 20 -24 0 -31
-4 -31 -20z"/>
<path d="M2660 910 c0 -11 -7 -20 -15 -20 -20 0 -20 -46 -1 -57 9 -5 16 -28
18 -63 3 -46 7 -56 29 -69 25 -14 59 -11 88 8 23 15 -4 53 -34 45 -23 -6 -25
-4 -25 34 0 34 3 41 23 44 16 2 23 11 25 31 3 23 0 27 -22 27 -19 0 -26 5 -26
20 0 16 -7 20 -30 20 -23 0 -30 -4 -30 -20z"/>
<path d="M1449 861 c-78 -79 6 -197 115 -161 40 13 42 18 23 44 -10 14 -18 15
-38 8 -17 -7 -31 -6 -45 1 -16 10 -10 13 41 17 l60 5 -2 35 c-4 76 -97 107
-154 51z"/>
<path d="M1651 871 c-38 -38 -24 -69 44 -104 24 -13 27 -17 13 -22 -9 -4 -26
-1 -38 5 -25 13 -25 13 -34 -17 -6 -19 -2 -25 19 -33 14 -5 37 -10 49 -10 33
0 76 37 76 65 0 24 -41 65 -66 65 -7 0 -16 5 -20 11 -5 9 3 10 29 5 30 -6 38
-3 47 15 15 27 10 31 -49 37 -40 3 -52 1 -70 -17z"/>
<path d="M2090 795 l0 -95 30 0 30 0 0 64 c0 63 8 79 38 69 8 -3 12 -26 12
-69 l0 -64 30 0 c30 0 30 1 30 53 0 55 19 95 38 83 7 -4 12 -34 12 -72 l0 -64
36 0 36 0 -4 76 c-3 66 -7 79 -28 96 -18 15 -33 18 -60 14 -19 -3 -39 -6 -45
-6 -5 1 -43 3 -82 5 l-73 4 0 -94z"/>
<path d="M2439 861 c-78 -79 20 -208 119 -157 38 20 52 44 52 91 0 86 -109
128 -171 66z"/>
<path d="M2845 878 c-33 -19 -44 -41 -45 -86 0 -71 58 -113 131 -95 35 9 46
28 31 51 -6 9 -16 10 -33 4 -15 -6 -33 -6 -49 2 -22 9 -18 11 38 14 l62 3 0
39 c0 30 -6 43 -26 59 -29 23 -78 27 -109 9z"/>
</g>
</svg>
