<?xml version="1.0" standalone="no"?>
<!DOCTYPE svg PUBLIC "-//W3C//DTD SVG 20010904//EN"
 "http://www.w3.org/TR/2001/REC-SVG-20010904/DTD/svg10.dtd">
<svg version="1.0" xmlns="http://www.w3.org/2000/svg"
 width="1024.000000pt" height="184.000000pt" viewBox="0 0 1024.000000 184.000000"
 preserveAspectRatio="xMidYMid meet">
<metadata>
Created by potrace 1.15, written by Peter Selinger 2001-2017
</metadata>
<g transform="translate(0.000000,184.000000) scale(0.100000,-0.100000)"
fill="#000000" stroke="none">
<path d="M2030 1531 c-174 -48 -317 -161 -394 -310 -55 -106 -76 -188 -76
-297 0 -286 195 -536 475 -609 69 -17 211 -20 287 -4 29 6 95 31 145 56 153
74 265 203 315 363 33 107 33 284 0 385 -30 92 -57 143 -112 208 -78 94 -166
153 -290 196 -91 32 -259 38 -350 12z m310 -106 c176 -62 303 -197 355 -379
24 -83 16 -218 -18 -303 -55 -135 -144 -232 -271 -293 -86 -41 -155 -53 -256
-48 -267 16 -489 251 -490 518 0 205 127 396 326 487 31 14 82 29 113 33 74
10 190 3 241 -15z"/>
<path d="M2068 1310 c-35 -11 -128 -61 -128 -70 0 -4 7 -24 15 -45 34 -81 -28
-172 -122 -179 l-38 -2 0 -105 c1 -94 4 -111 28 -161 38 -77 137 -169 214
-198 246 -92 501 55 546 313 28 167 -64 344 -220 422 -52 27 -69 30 -163 31
-58 1 -117 -2 -132 -6z"/>
<path d="M3364 1305 c-41 -18 -99 -84 -114 -130 -7 -20 -10 -64 -8 -96 8 -108
80 -178 205 -198 71 -11 108 -32 129 -72 19 -38 18 -68 -6 -107 -49 -80 -189
-66 -221 22 -14 38 -20 40 -81 30 -35 -6 -38 -9 -38 -39 0 -45 55 -123 110
-157 57 -35 130 -43 200 -22 42 12 69 32 141 101 l89 86 0 -197 0 -196 55 0
c48 0 55 3 60 22 3 13 6 128 7 255 l3 233 37 36 c49 49 115 58 168 22 43 -30
60 -61 60 -116 0 -75 -35 -117 -113 -136 -27 -6 -28 -8 -25 -64 l3 -57 38 2
c60 4 106 32 200 122 64 62 87 79 87 64 0 -26 50 -103 89 -136 63 -53 182 -68
265 -33 21 9 73 50 115 91 43 41 80 75 83 75 3 0 8 -10 12 -23 9 -36 83 -115
130 -139 30 -16 60 -21 111 -21 94 -1 149 29 241 131 l69 76 7 -66 c7 -77 26
-110 75 -133 63 -30 96 -16 199 89 l91 92 23 -48 c60 -126 217 -180 345 -118
l44 21 28 -21 c65 -47 137 -30 199 46 47 58 94 108 98 103 1 -2 15 -25 29 -51
49 -85 136 -130 236 -123 89 7 129 32 242 157 57 63 105 115 106 114 1 -1 3
-46 4 -100 2 -96 3 -100 33 -133 37 -40 92 -51 141 -27 17 8 66 53 109 99 l78
85 29 -60 c46 -92 116 -133 225 -134 100 0 142 27 306 199 73 77 136 140 140
140 5 0 28 -25 53 -55 53 -64 58 -98 19 -137 -23 -23 -31 -25 -78 -19 -50 5
-54 4 -85 -28 -40 -41 -36 -56 16 -82 79 -38 201 -13 253 53 11 15 59 67 106
115 46 49 84 92 84 96 0 15 -66 72 -83 72 -9 0 -31 -18 -48 -40 l-33 -40 -12
27 c-6 16 -34 54 -62 86 -28 31 -63 73 -78 92 -14 19 -33 35 -41 35 -9 0 -102
-88 -207 -195 l-191 -196 -56 1 c-92 0 -146 60 -136 149 4 37 13 52 46 83 35
33 47 38 87 38 l47 0 -59 -63 c-32 -34 -62 -63 -66 -65 -25 -11 34 -92 66 -92
14 0 59 38 130 110 l109 111 -38 39 c-82 84 -219 105 -317 47 -38 -22 -320
-306 -341 -343 -20 -36 -27 -6 -27 121 l0 135 84 89 c74 77 85 94 91 135 10
63 -16 131 -59 157 -38 23 -124 25 -165 5 -56 -29 -66 -58 -69 -206 l-4 -135
-148 -154 -148 -154 -53 -5 c-38 -3 -61 0 -84 12 -35 19 -75 81 -75 115 0 36
39 101 73 121 38 24 105 26 133 5 27 -20 41 -19 80 11 46 36 44 58 -11 90 -56
32 -145 42 -212 23 -56 -15 -114 -69 -279 -259 l-109 -124 -5 104 c-4 73 -11
116 -24 143 -26 53 -106 122 -160 137 -56 15 -139 9 -187 -14 -32 -15 -201
-179 -324 -313 -26 -29 -52 -53 -56 -53 -5 0 -9 59 -9 130 l0 130 80 0 80 0 0
55 0 55 -80 0 -80 0 0 125 0 126 -57 -3 -58 -3 -5 -177 -5 -178 -105 -114
c-126 -137 -147 -151 -220 -144 -46 5 -59 11 -87 42 -28 30 -33 43 -33 83 0
110 104 174 204 127 33 -16 34 -16 70 12 50 39 44 61 -23 96 -41 22 -67 28
-115 28 -100 0 -139 -25 -316 -207 -85 -87 -164 -163 -175 -170 -26 -16 -103
-16 -135 0 -65 33 -89 126 -47 187 35 53 68 72 115 68 l41 -3 -64 -69 c-36
-39 -65 -73 -65 -76 0 -3 18 -24 40 -45 l40 -39 117 117 117 117 -38 39 c-57
59 -125 84 -206 79 -84 -6 -107 -19 -211 -116 l-86 -81 -11 34 c-20 53 -86
120 -144 145 -42 18 -65 21 -118 18 -85 -6 -111 -21 -219 -124 l-90 -85 -20
39 c-37 72 -106 118 -201 130 -79 11 -120 47 -120 105 0 110 163 134 206 30
14 -32 15 -32 66 -26 29 3 55 7 57 9 11 10 -14 79 -42 116 -49 63 -94 85 -180
86 -41 0 -85 -5 -103 -13z m2821 -425 c57 -55 57 -147 0 -200 -19 -18 -40 -25
-83 -27 -69 -5 -110 16 -135 70 -22 46 -21 85 3 125 49 80 150 95 215 32z"/>
</g>
</svg>
