<?xml version="1.0" encoding="UTF-8" standalone="no"?>
<svg width="678px" height="521px" viewBox="0 0 678 521" version="1.1" xmlns="http://www.w3.org/2000/svg" xmlns:xlink="http://www.w3.org/1999/xlink" xmlns:sketch="http://www.bohemiancoding.com/sketch/ns">
    <!-- Generator: Sketch 3.3.3 (12072) - http://www.bohemiancoding.com/sketch -->
    <title>Untitled</title>
    <desc>Created with Sketch.</desc>
    <defs>
        <linearGradient x1="17.9375149%" y1="0%" x2="63.5224624%" y2="24.2236726%" id="linearGradient-1">
            <stop stop-color="#3882D9" offset="0%"></stop>
            <stop stop-color="#4571D2" offset="100%"></stop>
        </linearGradient>
        <linearGradient x1="52.4788066%" y1="0%" x2="96.5381561%" y2="0%" id="linearGradient-2">
            <stop stop-color="#0E76C7" offset="0%"></stop>
            <stop stop-color="#085BD6" offset="100%"></stop>
        </linearGradient>
        <linearGradient x1="0%" y1="100%" x2="78.1341588%" y2="100%" id="linearGradient-3">
            <stop stop-color="#545DC9" offset="0%"></stop>
            <stop stop-color="#624DC2" offset="100%"></stop>
        </linearGradient>
        <linearGradient x1="80.9487603%" y1="50%" x2="0%" y2="50%" id="linearGradient-4">
            <stop stop-color="#1695B5" offset="0%"></stop>
            <stop stop-color="#1289BB" offset="100%"></stop>
        </linearGradient>
        <linearGradient x1="88.6827907%" y1="0%" x2="8.32910092%" y2="0%" id="linearGradient-5">
            <stop stop-color="#3A7FD7" offset="0%"></stop>
            <stop stop-color="#4274D2" offset="100%"></stop>
        </linearGradient>
        <linearGradient x1="100%" y1="50%" x2="5.65781157%" y2="50%" id="linearGradient-6">
            <stop stop-color="#2F8BDC" offset="0%"></stop>
            <stop stop-color="#308CDD" offset="100%"></stop>
        </linearGradient>
        <linearGradient x1="0%" y1="0%" x2="100%" y2="0%" id="linearGradient-7">
            <stop stop-color="#3781D8" offset="0%"></stop>
            <stop stop-color="#4570D1" offset="100%"></stop>
        </linearGradient>
        <radialGradient cx="50%" cy="0%" fx="50%" fy="0%" r="100%" id="radialGradient-8">
            <stop stop-color="#3881D8" offset="0%"></stop>
            <stop stop-color="#2896E1" offset="100%"></stop>
        </radialGradient>
        <radialGradient cx="50%" cy="0%" fx="50%" fy="0%" r="100%" id="radialGradient-9">
            <stop stop-color="#0E75C7" offset="0%"></stop>
            <stop stop-color="#1287BC" offset="100%"></stop>
        </radialGradient>
        <linearGradient x1="0%" y1="50%" x2="100%" y2="50%" id="linearGradient-10">
            <stop stop-color="#0E77C7" offset="0%"></stop>
            <stop stop-color="#0A64D1" offset="100%"></stop>
        </linearGradient>
        <radialGradient cx="50%" cy="0%" fx="50%" fy="0%" r="100%" id="radialGradient-11">
            <stop stop-color="#0E75C7" offset="0%"></stop>
            <stop stop-color="#1288BC" offset="100%"></stop>
        </radialGradient>
        <radialGradient cx="50%" cy="0%" fx="50%" fy="0%" r="100%" id="radialGradient-12">
            <stop stop-color="#713BBB" offset="0%"></stop>
            <stop stop-color="#614EC3" offset="100%"></stop>
        </radialGradient>
        <radialGradient cx="50%" cy="0%" fx="50%" fy="0%" r="100%" id="radialGradient-13">
            <stop stop-color="#3880D8" offset="0%"></stop>
            <stop stop-color="#2796E1" offset="100%"></stop>
        </radialGradient>
        <radialGradient cx="50%" cy="0%" fx="50%" fy="0%" r="100%" id="radialGradient-14">
            <stop stop-color="#3981D8" offset="0%"></stop>
            <stop stop-color="#2895E0" offset="100%"></stop>
        </radialGradient>
        <radialGradient cx="50%" cy="0%" fx="50%" fy="0%" r="100%" id="radialGradient-15">
            <stop stop-color="#545FCA" offset="0%"></stop>
            <stop stop-color="#4571D2" offset="100%"></stop>
        </radialGradient>
        <radialGradient cx="50%" cy="0%" fx="50%" fy="0%" r="100%" id="radialGradient-16">
            <stop stop-color="#1696B4" offset="0%"></stop>
            <stop stop-color="#1AA9A9" offset="100%"></stop>
        </radialGradient>
        <radialGradient cx="50%" cy="0%" fx="50%" fy="0%" r="100%" id="radialGradient-17">
            <stop stop-color="#555CC9" offset="0%"></stop>
            <stop stop-color="#4572D2" offset="100%"></stop>
        </radialGradient>
    </defs>
    <g id="Page-1" stroke="none" stroke-width="1" fill="none" fill-rule="evenodd" sketch:type="MSPage">
        <rect id="Rectangle-1-Copy-15" fill="url(#linearGradient-1)" sketch:type="MSShapeGroup" transform="translate(484.066565, 284.000000) rotate(317.000000) translate(-484.066565, -284.000000) " x="424.969097" y="275" width="118.194937" height="18"></rect>
        <rect id="Rectangle-1-Copy-10" fill="#575CC9" sketch:type="MSShapeGroup" transform="translate(367.106352, 125.000000) rotate(136.000000) translate(-367.106352, -125.000000) " x="347.402482" y="116" width="39.4077385" height="18"></rect>
        <rect id="Rectangle-1-Copy-12" fill="url(#linearGradient-2)" sketch:type="MSShapeGroup" transform="translate(341.000000, 148.453467) rotate(223.000000) translate(-341.000000, -148.453467) " x="281.902532" y="139.453467" width="118.194937" height="18"></rect>
        <rect id="Rectangle-1-Copy-13" fill="url(#linearGradient-3)" sketch:type="MSShapeGroup" transform="translate(485.933435, 148.453467) rotate(223.000000) translate(-485.933435, -148.453467) " x="426.835966" y="139.453467" width="118.194937" height="18"></rect>
        <rect id="Rectangle-1-Copy-4" fill="url(#linearGradient-4)" sketch:type="MSShapeGroup" transform="translate(122.557064, 287.247557) rotate(90.000000) translate(-122.557064, -287.247557) " x="94.0570637" y="278.247557" width="57" height="18"></rect>
        <rect id="Rectangle-1-Copy-5" fill="url(#linearGradient-5)" sketch:type="MSShapeGroup" transform="translate(558.500000, 284.000000) rotate(90.000000) translate(-558.500000, -284.000000) " x="530" y="275" width="57" height="18"></rect>
        <rect id="Rectangle-1-Copy-6" fill="url(#linearGradient-6)" sketch:type="MSShapeGroup" transform="translate(341.000000, 350.500000) rotate(180.000000) translate(-341.000000, -350.500000) " x="312.5" y="341.5" width="57" height="18"></rect>
        <rect id="Rectangle-1-Copy-7" fill="#1082BF" sketch:type="MSShapeGroup" transform="translate(346.680649, 214.004970) rotate(180.000000) translate(-346.680649, -214.004970) " x="323.861298" y="205.00497" width="45.638702" height="18"></rect>
        <rect id="Rectangle-1-Copy-8" fill="#575CC9" sketch:type="MSShapeGroup" transform="translate(314.000000, 173.000000) rotate(136.000000) translate(-314.000000, -173.000000) " x="294.296131" y="164" width="39.4077385" height="18"></rect>
        <rect id="Rectangle-1-Copy-9" fill="#784CAD" sketch:type="MSShapeGroup" transform="translate(512.480756, 122.229851) rotate(136.000000) translate(-512.480756, -122.229851) " x="492.055054" y="113.229851" width="40.8514054" height="18"></rect>
        <rect id="Rectangle-1-Copy-11" fill="#0F7CC2" sketch:type="MSShapeGroup" transform="translate(457.000000, 173.000000) rotate(136.000000) translate(-457.000000, -173.000000) " x="437.296131" y="164" width="39.4077385" height="18"></rect>
        <rect id="Rectangle-1-Copy-14" fill="url(#linearGradient-7)" sketch:type="MSShapeGroup" transform="translate(341.000000, 284.000000) rotate(223.000000) translate(-341.000000, -284.000000) " x="281.902532" y="275" width="118.194937" height="18"></rect>
        <circle id="Oval-1-Copy-17" fill="url(#radialGradient-8)" sketch:type="MSShapeGroup" cx="558.5" cy="350.5" r="45.5"></circle>
        <rect id="Rectangle-1-Copy-3" fill="#107EC2" sketch:type="MSShapeGroup" x="164.361298" y="205.00497" width="45.638702" height="18"></rect>
        <rect id="Rectangle-1" fill="#085DD5" sketch:type="MSShapeGroup" x="128" y="71" width="102" height="18"></rect>
        <circle id="Oval-1-Copy-2" fill="url(#radialGradient-9)" sketch:type="MSShapeGroup" cx="122.5" cy="214.5" r="45.5"></circle>
        <rect id="Rectangle-1-Copy-2" fill="url(#linearGradient-10)" sketch:type="MSShapeGroup" transform="translate(195.500000, 146.000000) rotate(-43.000000) translate(-195.500000, -146.000000) " x="140" y="137" width="111" height="18"></rect>
        <circle id="Oval-1-Copy" fill="#085BD6" sketch:type="MSShapeGroup" cx="268.5" cy="79.5" r="45.5"></circle>
        <circle id="Oval-1-Copy-3" fill="#085BD6" sketch:type="MSShapeGroup" cx="122.5" cy="79.5" r="45.5"></circle>
        <circle id="Oval-1-Copy-7" fill="#FFFFFF" sketch:type="MSShapeGroup" cx="411.5" cy="79.5" r="28.5"></circle>
        <circle id="Oval-1-Copy-5" fill="#784CAD" sketch:type="MSShapeGroup" cx="558.5" cy="79.5" r="45.5"></circle>
        <path d="M411.5,260 C436.628956,260 457,239.628956 457,214.5 C457,189.371044 436.628956,169 411.5,169 C386.371044,169 366,189.371044 366,214.5 C366,239.628956 386.371044,260 411.5,260 Z" id="Oval-1-Copy-18" fill="url(#radialGradient-11)" sketch:type="MSShapeGroup"></path>
        <circle id="Oval-1-Copy-13" fill="url(#radialGradient-12)" sketch:type="MSShapeGroup" cx="411.5" cy="79.5" r="45.5"></circle>
        <circle id="Oval-1-Copy-14" fill="url(#radialGradient-13)" sketch:type="MSShapeGroup" cx="268.5" cy="350.5" r="45.5"></circle>
        <circle id="Oval-1-Copy-15" fill="url(#radialGradient-14)" sketch:type="MSShapeGroup" cx="411.5" cy="350.5" r="45.5"></circle>
        <circle id="Oval-1-Copy-16" fill="url(#radialGradient-15)" sketch:type="MSShapeGroup" cx="558.5" cy="214.5" r="45.5"></circle>
        <circle id="Oval-1-Copy-8" fill="#FFFFFF" sketch:type="MSShapeGroup" cx="558.5" cy="214.5" r="28.5"></circle>
        <circle id="Oval-1-Copy-19" fill="#FFFFFF" sketch:type="MSShapeGroup" cx="268.5" cy="350.5" r="28.5"></circle>
        <circle id="Oval-1-Copy-6" fill="url(#radialGradient-16)" sketch:type="MSShapeGroup" cx="122.5" cy="350.5" r="45.5"></circle>
        <circle id="Oval-1-Copy-9" fill="#FFFFFF" sketch:type="MSShapeGroup" cx="558.5" cy="350.5" r="28.5"></circle>
        <circle id="Oval-1-Copy-10" fill="#FFFFFF" sketch:type="MSShapeGroup" cx="411.5" cy="350.5" r="28.5"></circle>
        <circle id="Oval-1-Copy-11" fill="#FFFFFF" sketch:type="MSShapeGroup" cx="411.5" cy="79.5" r="28.5"></circle>
        <path d="M268.5,260 C293.628956,260 314,239.628956 314,214.5 C314,189.371044 293.628956,169 268.5,169 C243.371044,169 223,189.371044 223,214.5 C223,239.628956 243.371044,260 268.5,260 Z" id="Oval-1-Copy-4" fill="url(#radialGradient-17)" sketch:type="MSShapeGroup"></path>
        <circle id="Oval-1-Copy-12" fill="#FFFFFF" sketch:type="MSShapeGroup" cx="268.5" cy="214.5" r="28.5"></circle>
        <text id="TinoHacks" sketch:type="MSTextLayer" font-family="Orbitron" font-size="100" font-weight="260" fill="#58595B">
            <tspan x="55.180649" y="486.566908">TinoHacks</tspan>
        </text>
    </g>
</svg>